<svg width="54" height="23" viewBox="0 0 54 23" fill="none" xmlns="http://www.w3.org/2000/svg">
<path d="M16.3256 12.8116C15.7618 15.3484 13.6948 16.9456 10.9074 16.9456C7.24316 16.9456 5.27008 14.1583 5.27008 11.0577C5.27008 7.89453 7.27447 5.23245 10.8448 5.16981C13.6948 5.10718 15.6052 6.76706 16.2003 9.08464H21.5558C20.9607 4.04234 16.8267 0.0961914 10.9074 0.0961914C4.26789 0.0961914 0.00854492 5.04454 0.00854492 11.1204C0.00854492 17.1335 4.26789 22.0192 10.9074 22.0192C16.9833 22.0192 21.086 18.0418 21.6184 12.8116H16.3256Z" fill="white"/>
<path d="M34.9726 7.80058H34.8474C33.9078 6.45388 32.1853 5.42036 30.0243 5.42036C25.7336 5.42036 22.7897 8.95937 22.7897 13.7824C22.7897 18.7308 25.9216 22.0192 30.0243 22.0192C32.1853 22.0192 33.9078 20.9857 34.8474 19.639H34.9726V21.5495H39.7957V5.89014H34.9726V7.80058ZM31.3397 17.4467C29.2726 17.4467 27.7067 15.9121 27.7067 13.7198C27.7067 11.5275 29.2726 9.99288 31.3397 9.99288C33.438 9.99288 34.9726 11.5901 34.9726 13.7198C34.9726 15.7555 33.5007 17.4467 31.3397 17.4467Z" fill="white"/>
<path d="M50.5236 5.89014C48.9263 5.89014 47.6423 6.8297 47.2038 8.23904H47.0785V5.89014H42.4747V21.5495H47.3291V13.6258C47.3291 11.966 48.5505 10.7445 50.2104 10.7445H53.9999V5.89014H50.5236Z" fill="white"/>
</svg>
