<svg width="110" height="29" viewBox="0 0 110 29" fill="none" xmlns="http://www.w3.org/2000/svg">
<path d="M0 22.5494H15.5027V17.5384H5.16758V1.56593H0V22.5494Z" fill="#FF9514"/>
<path d="M24.3263 6.42032C19.5032 6.42032 16.1208 10.022 16.1208 14.7198C16.1208 19.1044 18.8768 23.0192 24.2323 23.0192C27.9592 23.0192 31.1851 21.1088 32.1872 17.5384H27.1449C26.6438 18.3214 25.3598 18.8225 24.1697 18.7285C22.3532 18.572 21.3197 17.5071 21.0065 16.317H32.2812C32.9076 10.617 29.5565 6.42032 24.3263 6.42032ZM24.2949 10.6797C25.8296 10.6797 27.051 11.4 27.4895 12.7154H21.0691C21.5076 11.4626 22.729 10.6797 24.2949 10.6797Z" fill="#FF9514"/>
<path d="M45.5848 8.80054H45.4595C44.5199 7.45384 42.7974 6.42032 40.6364 6.42032C36.3458 6.42032 33.4018 9.95933 33.4018 14.7824C33.4018 19.7307 36.5337 23.0192 40.6364 23.0192C42.7974 23.0192 44.5199 21.9857 45.4595 20.639H45.5848V22.5494H50.4079V6.8901H45.5848V8.80054ZM41.9518 18.4467C39.8848 18.4467 38.3189 16.9121 38.3189 14.7198C38.3189 12.5275 39.8848 10.9928 41.9518 10.9928C44.0502 10.9928 45.5848 12.5901 45.5848 14.7198C45.5848 16.7555 44.1128 18.4467 41.9518 18.4467Z" fill="#FF9514"/>
<path d="M57.3535 6.8901C54.3469 6.8901 51.998 8.86318 51.998 11.7132C51.998 13.8428 53.6579 15.4714 55.9755 15.9725L61.6755 17.1939C61.8947 17.2566 61.9573 17.4132 61.9573 17.5384C61.9573 17.695 61.8321 17.8516 61.6128 17.8516H52.6557V22.5494H61.6441C64.6507 22.5494 67.0623 20.545 67.0623 17.6637C67.0623 15.4401 65.465 13.7802 63.0535 13.3104L57.4474 12.2143C57.2909 12.183 57.1656 12.0264 57.1656 11.9011C57.1656 11.7445 57.2909 11.5879 57.5101 11.5879H65.9348V6.8901H57.3535Z" fill="#FF9514"/>
<path d="M68.6544 0V5.16758H73.5088V0H68.6544ZM68.6544 6.8901V22.5494H73.5088V6.8901H68.6544Z" fill="#FF9514"/>
<path d="M85.5104 6.45164C83.7566 6.45164 82.0967 7.23461 81.0632 8.67527H80.9379V6.8901H76.2088V22.5494H81.0632V14.2813C81.0632 12.3395 82.5665 11.2434 84.0071 11.2434C85.2912 11.2434 86.6379 12.1203 86.6379 14.1247V22.5494H91.4923V13.467C91.4923 8.8945 89.2373 6.45164 85.5104 6.45164Z" fill="#FF9514"/>
<path d="M105.133 8.80054H105.008C104.068 7.45384 102.346 6.42032 100.185 6.42032C95.894 6.42032 92.9501 9.95933 92.9501 14.7824C92.9501 19.7307 96.0819 23.0192 100.185 23.0192C102.346 23.0192 104.068 21.9857 105.008 20.639H105.133V22.9252C105.133 23.5516 104.663 23.9274 104.006 23.9274H95.0171V28.8132H105.196C108.202 28.8132 109.956 27.1846 109.956 24.2093V6.8901H105.133V8.80054ZM101.5 18.4467C99.433 18.4467 97.8671 16.9121 97.8671 14.7198C97.8671 12.5275 99.433 10.9928 101.5 10.9928C103.598 10.9928 105.133 12.5901 105.133 14.7198C105.133 16.7555 103.661 18.4467 101.5 18.4467Z" fill="#FF9514"/>
</svg>
