<svg width="50" height="40" viewBox="0 0 50 40" fill="none" xmlns="http://www.w3.org/2000/svg">
<path d="M35.7956 7.10121L36.1672 8.0583H37.194H47.0726C47.7897 8.0583 48.3415 8.63119 48.3414 9.29077V9.29087V36.617C48.3414 37.2767 47.7896 37.8496 47.0725 37.8496H2.76893C2.05185 37.8496 1.5 37.2768 1.5 36.6169V9.29087C1.5 8.63119 2.05182 8.0583 2.76893 8.0583H12.647H13.6735L14.0452 7.10144L16.1838 1.59618C16.1838 1.59605 16.1839 1.59591 16.1839 1.59578C16.2031 1.54684 16.2586 1.5 16.3369 1.5H33.5046C33.5824 1.5 33.6388 1.54693 33.6584 1.59652C33.6585 1.59672 33.6586 1.59691 33.6586 1.59711L35.7956 7.10121Z" stroke="#9B63F8" stroke-width="3"/>
<path d="M14.7344 21.641C14.7344 16.1298 19.2858 11.6094 24.9195 11.6094C30.5532 11.6094 35.1046 16.1293 35.1046 21.641C35.1046 27.1528 30.5532 31.6732 24.9195 31.6732C19.2858 31.6732 14.7344 27.1528 14.7344 21.641Z" stroke="#9B63F8" stroke-width="3"/>
<path d="M23.5 16H26.5V28H23.5V16Z" fill="#9B63F8"/>
<path d="M19 23.5V20.5H31V23.5H19Z" fill="#9B63F8"/>
</svg>
