<svg width="41" height="37" viewBox="0 0 41 37" fill="none" xmlns="http://www.w3.org/2000/svg">
<path d="M20.5007 7.87928C22.3213 5.43845 24.159 3.39373 25.8206 2.09398C26.6815 1.4206 27.5081 0.936693 28.2714 0.707701C29.0388 0.477496 29.761 0.500465 30.3792 0.871408C30.9953 1.23887 31.371 1.86951 31.5591 2.66486C31.7467 3.45797 31.7537 4.43562 31.6188 5.54019C31.3581 7.67601 30.5594 10.3436 29.4174 13.1953C32.3817 13.601 35.0208 14.2216 36.9455 15.0572C37.9419 15.4898 38.7612 15.9861 39.3349 16.5519C39.9112 17.1203 40.2506 17.771 40.2506 18.4999C40.2506 19.2292 39.9112 19.8801 39.3349 20.4486C38.7612 21.0144 37.9419 21.5107 36.9454 21.9432C35.0207 22.7787 32.3817 23.3989 29.4174 23.8046C30.5594 26.6563 31.3581 29.3242 31.6188 31.4602C31.7537 32.5649 31.7467 33.5426 31.5591 34.3356C31.3709 35.1312 30.9951 35.7618 30.3786 36.1288C30.3785 36.1288 30.3785 36.1288 30.3785 36.1289L30.2506 35.914C29.9386 36.1007 29.5923 36.1891 29.2163 36.1891C27.0215 36.1891 23.8239 33.1649 20.6562 28.906L20.5007 7.87928ZM20.5007 7.87928C18.6815 5.43932 16.8448 3.39692 15.1835 2.09816C14.3227 1.42526 13.4959 0.941589 12.7323 0.71204C11.9648 0.481304 11.2422 0.502859 10.6229 0.870865L10.6227 0.870987C10.0058 1.23835 9.62967 1.86914 9.44127 2.6648C9.25347 3.45794 9.24636 4.43561 9.3812 5.54019C9.64194 7.67603 10.441 10.3436 11.5837 13.1953C8.61944 13.601 5.98044 14.2216 4.05576 15.0572C3.05933 15.4898 2.23998 15.9861 1.66634 16.5519C1.09003 17.1203 0.75061 17.771 0.75061 18.4999C0.75061 19.2292 1.08999 19.8801 1.66633 20.4486C2.23998 21.0144 3.05935 21.5107 4.05578 21.9432C5.98047 22.7786 8.61946 23.3989 11.5837 23.8046C10.441 26.6563 9.64194 29.3242 9.3812 31.4602C9.24636 32.5649 9.25347 33.5426 9.44127 34.3357C9.62959 35.131 10.0055 35.7614 10.622 36.1284M20.5007 7.87928L20.5006 29.1156C18.9509 31.1923 17.3904 32.9807 15.9375 34.268C15.1795 34.9397 14.4456 35.4797 13.753 35.8528C13.0621 36.225 12.3977 36.4391 11.7833 36.4391C11.3694 36.4391 10.9759 36.3427 10.622 36.1284M10.622 36.1284C10.6217 36.1282 10.6213 36.128 10.621 36.1278L10.7506 35.914L10.6228 36.1289C10.6225 36.1287 10.6223 36.1286 10.622 36.1284ZM22.5874 22.2402C22.945 21.642 23.3025 21.028 23.6598 20.3888C24.0183 19.7475 24.3562 19.1188 24.6801 18.4999C24.3563 17.8811 24.0184 17.2525 23.66 16.6114L22.5874 22.2402ZM22.5874 22.2402C21.9073 22.259 21.214 22.2717 20.5006 22.2717C19.7873 22.2717 19.0927 22.259 18.4139 22.2402C18.0562 21.642 17.6987 21.028 17.3414 20.3888C16.983 19.7477 16.6451 19.119 16.3198 18.4999C16.6451 17.8808 16.983 17.2522 17.3414 16.611C17.6987 15.9719 18.0562 15.3592 18.414 14.7609C19.0938 14.7408 19.7872 14.7282 20.5006 14.7282C21.214 14.7282 21.9072 14.7408 22.5856 14.7609C22.9434 15.3592 23.3011 15.972 23.66 16.6114L22.5874 22.2402ZM25.4474 15.563L25.4471 15.5626C25.3183 15.3323 25.1857 15.1029 25.0536 14.8749C25.514 14.9061 25.9632 14.9418 26.4042 14.9805C26.2169 15.3934 26.0223 15.8123 25.8177 16.2392C25.6958 16.0138 25.5728 15.7881 25.4474 15.563ZM15.1835 16.2392C14.979 15.8123 14.7844 15.3934 14.597 14.9805C15.0377 14.9418 15.4863 14.9061 15.9469 14.8749C15.8148 15.103 15.6832 15.3319 15.5541 15.5626L15.5539 15.563C15.4284 15.7881 15.3054 16.0138 15.1835 16.2392ZM35.6957 20.2065C34.032 20.829 31.6103 21.4057 28.5681 21.7905C28.0865 20.7038 27.5619 19.6006 27.0053 18.4999C27.5619 17.3993 28.0865 16.2975 28.5682 15.2094C31.6103 15.5949 34.032 16.1716 35.6958 16.794C36.5458 17.1119 37.1864 17.4376 37.6095 17.7482C38.0477 18.0697 38.1906 18.3284 38.1906 18.4999C38.1906 18.6714 38.0477 18.9302 37.6095 19.2519C37.1863 19.5626 36.5457 19.8884 35.6957 20.2065ZM29.3436 34.3072C29.2085 34.385 28.9267 34.3887 28.4363 34.1562C27.9638 33.9322 27.3696 33.5222 26.677 32.9218C25.3198 31.7452 23.621 29.8689 21.773 27.341C22.4468 26.3675 23.1122 25.3521 23.7593 24.3035C24.9565 24.2496 26.1389 24.1671 27.2873 24.0548C28.4869 26.9667 29.2145 29.4208 29.5241 31.2208C29.6822 32.1399 29.7292 32.8768 29.6799 33.4123C29.6552 33.6799 29.6074 33.8871 29.5439 34.038C29.4808 34.1881 29.4088 34.2678 29.3436 34.3072ZM11.6577 34.3073C11.5922 34.2678 11.52 34.1881 11.4567 34.0378C11.3932 33.8869 11.3452 33.6798 11.3204 33.4122C11.2709 32.8768 11.3178 32.1399 11.4759 31.2208C11.7855 29.4208 12.5135 26.9667 13.7139 24.0548C14.8622 24.1671 16.0433 24.2496 17.2405 24.3035C17.8889 25.3521 18.5543 26.3689 19.2283 27.3427C17.381 29.8714 15.6833 31.7485 14.3265 32.925C13.6342 33.5255 13.04 33.9352 12.5674 34.1586C12.0768 34.3905 11.7942 34.3864 11.6577 34.3073ZM2.81061 18.4999C2.81061 18.3284 2.95346 18.0697 3.39149 17.7481C3.81453 17.4376 4.45499 17.1119 5.30489 16.794C6.96836 16.1716 9.39001 15.5949 12.4329 15.2094C12.9134 16.2977 13.4394 17.3995 13.9959 18.4999C13.4393 19.6004 12.9134 20.7036 12.4329 21.7905C9.39005 21.4057 6.96839 20.829 5.30491 20.2065C4.45503 19.8884 3.81457 19.5626 3.39153 19.2519C2.9535 18.9303 2.81061 18.6714 2.81061 18.4999ZM11.6575 2.69269C11.7095 2.66275 11.7796 2.64204 11.88 2.64204C12.129 2.64204 12.5042 2.77051 13.0034 3.07572C13.4946 3.37606 14.0768 3.82937 14.7321 4.4349C16.0153 5.62066 17.5604 7.37329 19.2269 9.65423C18.5544 10.6298 17.8917 11.6493 17.2451 12.6963C16.0464 12.7502 14.8625 12.8327 13.7139 12.945C12.5135 10.0331 11.7855 7.57901 11.4759 5.779C11.3178 4.85993 11.2709 4.12306 11.3204 3.58765C11.3452 3.31998 11.3932 3.1129 11.4567 2.96198C11.52 2.81185 11.592 2.73216 11.6575 2.69269ZM20.5006 12.6195C20.2461 12.6195 19.9918 12.6226 19.7385 12.6268C19.994 12.2311 20.2481 11.8468 20.5005 11.4728C20.7527 11.8467 21.0061 12.231 21.2613 12.6268C21.0082 12.6226 20.7542 12.6195 20.5006 12.6195ZM15.554 21.4371C15.6823 21.668 15.8136 21.897 15.9456 22.1248C15.4856 22.0945 15.0377 22.0584 14.597 22.0195C14.7843 21.6065 14.9789 21.1877 15.1835 20.7615C15.3054 20.9868 15.4285 21.2129 15.554 21.4371ZM20.5006 24.3803C20.7556 24.3803 21.0104 24.3772 21.2644 24.373C21.0082 24.7701 20.7539 25.1541 20.5006 25.5283C20.2468 25.1539 19.9921 24.77 19.7362 24.373C19.9904 24.3772 20.2454 24.3803 20.5006 24.3803ZM25.0545 22.1248C25.1863 21.897 25.318 21.668 25.4471 21.4372C25.5726 21.213 25.6958 20.9868 25.8177 20.7615C26.0223 21.1877 26.2169 21.6065 26.4042 22.0195C25.9631 22.0584 25.5145 22.0945 25.0545 22.1248ZM29.1212 2.64204C29.2204 2.64204 29.2919 2.66285 29.3436 2.69265C29.4089 2.73208 29.4808 2.81171 29.5439 2.96182C29.6074 3.11277 29.6552 3.31988 29.6799 3.58757C29.7292 4.12301 29.6822 4.85991 29.5241 5.779C29.2145 7.57902 28.4869 10.0332 27.2873 12.945C26.1387 12.8327 24.9548 12.7502 23.7561 12.6963C23.1096 11.6494 22.447 10.6286 21.7744 9.65413C23.4409 7.37324 24.986 5.62065 26.2691 4.4349C26.9244 3.82937 27.5066 3.37606 27.9978 3.07572C28.497 2.77051 28.8722 2.64204 29.1212 2.64204ZM20.5006 19.0543C20.2153 19.0543 19.9706 18.8131 19.9706 18.4999C19.9706 18.188 20.2156 17.9456 20.5006 17.9456C20.7856 17.9456 21.0306 18.188 21.0306 18.4999C21.0306 18.8131 20.7859 19.0543 20.5006 19.0543ZM20.5006 15.8369C19.0652 15.8369 17.9106 17.0387 17.9106 18.4999C17.9106 19.9611 19.0652 21.163 20.5006 21.163C21.936 21.163 23.0906 19.9611 23.0906 18.4999C23.0906 17.0387 21.936 15.8369 20.5006 15.8369Z" fill="#8B8985" stroke="#8B8985" stroke-width="0.5"/>
</svg>
