<svg width="41" height="28" viewBox="0 0 41 28" fill="none" xmlns="http://www.w3.org/2000/svg">
<path d="M8.16138 21.1225L8.16137 21.1225C8.11787 21.1278 8.06963 21.132 8.0202 21.132C7.65206 21.132 7.30573 20.9376 7.12121 20.6126C6.91138 20.2439 6.95546 19.7888 7.23067 19.4659L8.16138 21.1225ZM8.16138 21.1225L8.16564 21.1219L13.2215 20.4136M8.16138 21.1225L13.2215 20.4136M13.2215 20.4136C13.0639 23.0863 10.7952 25.2202 8.0202 25.2202C5.14278 25.2202 2.8102 22.9263 2.8102 20.1173C2.8102 17.3082 5.14278 15.0143 8.0202 15.0143C8.91219 15.0143 9.74599 15.2462 10.4828 15.6399L7.23097 19.4656L13.2215 20.4136ZM33.9561 19.7946L32.3466 15.0608C32.5566 15.0319 32.7668 15.0143 32.9802 15.0143C35.8576 15.0143 38.1902 17.3082 38.1902 20.1173C38.1902 22.9263 35.8576 25.2202 32.9802 25.2202C30.1028 25.2202 27.7702 22.9263 27.7702 20.1173C27.7702 18.231 28.8335 16.5912 30.4023 15.7094L32.004 20.4391L32.0042 20.4397C32.1496 20.8654 32.5525 21.132 32.9802 21.132C33.0867 21.132 33.1947 21.1159 33.3017 21.0823L33.3049 21.0812C33.8412 20.9046 34.1401 20.3316 33.9561 19.7946ZM31.7831 2.71455L31.7836 2.71438C32.3132 2.51712 32.5858 1.93321 32.3838 1.40441L32.3835 1.40361C32.1793 0.874432 31.5865 0.624524 31.0598 0.813209L31.0598 0.813197L31.0573 0.814096L26.9233 2.34351L26.9225 2.34382C26.4124 2.53461 26.1345 3.08779 26.308 3.60832L26.3084 3.60932L27.0276 5.73702L16.9198 9.45385L15.6903 5.83786H17.3802C17.9441 5.83786 18.4102 5.38799 18.4102 4.82315C18.4102 4.25832 17.9441 3.80845 17.3802 3.80845H11.1402C10.5763 3.80845 10.1102 4.25832 10.1102 4.82315C10.1102 5.38799 10.5763 5.83786 11.1402 5.83786H13.5195L15.0324 10.2874C15.0317 10.2883 15.0309 10.2891 15.0302 10.29C15.0299 10.2904 15.0296 10.2908 15.0292 10.2912L11.831 14.0521C10.7221 13.3779 9.4187 12.9849 8.0202 12.9849C4.01646 12.9849 0.750198 16.1801 0.750198 20.1173C0.750198 24.0545 4.01646 27.2496 8.0202 27.2496C12.0218 27.2496 15.2867 24.0579 15.2902 20.1237L19.0856 19.5925L19.0856 19.5926L19.0913 19.5916C19.1165 19.5875 19.1372 19.5809 19.1517 19.5755C19.1564 19.5737 19.1608 19.572 19.1647 19.5703C19.1661 19.5702 19.1677 19.5701 19.1694 19.5699L19.1707 19.5698C19.1854 19.5684 19.219 19.5652 19.256 19.5545L19.256 19.5547L19.2643 19.552C19.3141 19.5357 19.3501 19.511 19.3644 19.5011L19.3648 19.5008L19.3698 19.4973L19.3703 19.497C19.4258 19.4724 19.4834 19.441 19.5394 19.399C19.5941 19.3606 19.639 19.3188 19.6772 19.2788L19.685 19.273L19.686 19.2723C19.6982 19.2633 19.7315 19.2385 19.7609 19.201L19.7628 19.1986L27.9579 8.48592L29.7408 13.7527C27.3622 14.9231 25.7102 17.3247 25.7102 20.1173C25.7102 24.0545 28.9765 27.2496 32.9802 27.2496C36.9839 27.2496 40.2502 24.0545 40.2502 20.1173C40.2502 16.1801 36.9839 12.9849 32.9802 12.9849C32.5362 12.9849 32.1023 13.0275 31.6818 13.1036L29.28 6.03829L29.2795 6.03657L28.5715 3.90316L31.7831 2.71455ZM19.1847 19.5615C19.1847 19.5615 19.1828 19.5624 19.1806 19.5632L19.181 19.5632C19.1837 19.562 19.1847 19.5615 19.1847 19.5615ZM19.2945 16.4382L17.5752 11.3788L25.3526 8.51915L19.2945 16.4382ZM13.412 15.3562L15.8002 12.5458L17.5704 17.7551L14.9722 18.1188C14.6636 17.0812 14.131 16.1394 13.412 15.3562ZM12.0656 16.9377C12.4237 17.3755 12.7055 17.8706 12.9018 18.4094L10.5343 18.7403L12.0656 16.9377Z" fill="#D9D9D9" stroke="#D9D9D9" stroke-width="0.5"/>
</svg>
