<svg width="40" height="39" viewBox="0 0 40 39" fill="none" xmlns="http://www.w3.org/2000/svg">
<path d="M21.01 28.0983H38.24C38.6102 28.0983 38.9449 28.3075 39.1215 28.6373C39.2969 28.9646 39.2937 29.3646 39.1095 29.6878L21.01 28.0983ZM21.01 28.0983V24.3266V1.80484C21.01 1.61239 20.951 1.44715 20.8807 1.30967L20.8795 1.30738C20.8586 1.26766 20.8339 1.23166 20.8175 1.20779C20.8153 1.20464 20.8133 1.20171 20.8114 1.19901L20.811 1.19834C20.7383 1.09254 20.6477 1.00106 20.5407 0.928575C20.5365 0.923828 20.5316 0.918603 20.5262 0.913295C20.5096 0.897106 20.4856 0.877253 20.453 0.860921C20.4342 0.851378 20.4162 0.84517 20.4004 0.841084C20.281 0.785994 20.1465 0.750488 20 0.750488C19.9615 0.750488 19.9307 0.757838 19.9184 0.760903C19.8882 0.76456 19.864 0.771227 19.8515 0.774767L19.8412 0.777714L19.8355 0.77935C19.7116 0.80092 19.5958 0.843633 19.4891 0.91149C19.4658 0.918721 19.4283 0.933318 19.3915 0.96164L19.3915 0.961612L19.3882 0.964242C19.1284 1.17122 16.0121 3.67621 12.5742 7.76113C9.13835 11.8437 5.36731 17.521 3.81946 24.0728L3.81929 24.0736C3.74703 24.3836 3.8105 24.7135 4.0003 24.9694C4.18881 25.2235 4.48176 25.3809 4.79997 25.3809H18.99V28.0983H1.75997C1.38976 28.0983 1.05505 28.3075 0.878387 28.6373C0.702475 28.9657 0.708468 29.3655 0.890174 29.6874L0.89041 29.6878L3.23729 33.827L3.23733 33.827C4.78257 36.5505 7.60985 38.2505 10.6231 38.2505H29.3768C32.3915 38.2505 35.2189 36.5506 36.7626 33.827C36.7626 33.827 36.7627 33.827 36.7627 33.8269L39.1092 29.6884L21.01 28.0983ZM3.53124 30.207H36.4687L35.0251 32.7535C33.8374 34.8479 31.67 36.1418 29.3768 36.1418H10.6231C8.32989 36.1418 6.16254 34.8479 4.97489 32.7535C4.97488 32.7535 4.97488 32.7535 4.97487 32.7535L3.53124 30.207ZM18.99 23.2722H6.12488C8.72651 14.3119 15.7749 7.02625 18.99 4.06166V23.2722Z" fill="#D9D9D9" stroke="#D9D9D9" stroke-width="0.5"/>
</svg>
