<svg width="38" height="41" viewBox="0 0 38 41" fill="none" xmlns="http://www.w3.org/2000/svg">
<mask id="path-1-outside-1" maskUnits="userSpaceOnUse" x="0.000213623" y="0" width="38" height="41" fill="black">
<rect fill="white" x="0.000213623" width="38" height="41"/>
<path fill-rule="evenodd" clip-rule="evenodd" d="M7.26108 4.12C9.09082 4.12 10.5793 5.69404 10.5793 7.63C10.5793 8.5894 10.2037 9.93256 9.38195 11.92H5.14021C4.32787 9.98092 3.94282 8.60968 3.94282 7.63C3.94282 5.69404 5.43134 4.12 7.26108 4.12ZM8.83726 15.04H5.68491C5.6943 14.5143 5.65047 13.9854 5.56908 13.48H8.95152C8.87169 13.9854 8.82787 14.5143 8.83726 15.04ZM5.50491 16.6H9.01726C9.10178 17.0009 9.20821 17.3894 9.36317 17.7435C9.74352 18.5937 10.1082 19.5312 10.4479 20.5312C10.5872 20.9399 11.0348 21.1599 11.4402 21.0195C11.8503 20.8822 12.0694 20.4392 11.9301 20.032C11.5764 18.9868 11.1929 18.0024 10.7969 17.1164C10.6232 16.717 10.5026 16.2412 10.4494 15.7264C10.3367 14.7982 10.4228 13.7265 10.6654 12.9449L10.7844 12.6282C11.7251 10.4021 12.1446 8.86084 12.1446 7.63C12.1446 4.83448 9.95326 2.56 7.26108 2.56C4.56891 2.56 2.3776 4.83448 2.3776 7.63C2.3776 8.86084 2.79708 10.4021 3.77221 12.7203L3.85204 12.9309C4.09934 13.7265 4.18543 14.7982 4.07274 15.7389C4.01952 16.2412 3.899 16.717 3.72995 17.1086C2.02074 20.9212 1.00021 25.127 1.00021 28.3624C1.00021 32.8661 1.88613 35.4807 3.21813 38.0204C3.35274 38.2778 3.62039 38.44 3.91152 38.44H10.6106C10.9049 38.44 11.2352 38.1545 11.3698 37.894C11.4371 37.7614 11.5013 37.6319 11.5576 37.4946C11.7157 37.0937 11.5185 36.6398 11.1162 36.4822C10.7343 36.3309 10.2929 36.5072 10.1192 36.88H4.39047C3.25726 34.618 2.56543 32.317 2.56543 28.3624C2.56543 25.336 3.5343 21.3658 5.16213 17.7372C5.31552 17.3847 5.42195 16.9994 5.50491 16.6ZM30.7393 4.12C32.5691 4.12 34.0576 5.69404 34.0576 7.63C34.0576 8.5894 33.682 9.93256 32.8602 11.92H28.6185C27.8061 9.98092 27.4211 8.60968 27.4211 7.63C27.4211 5.69404 28.9096 4.12 30.7393 4.12ZM29.0473 13.48H32.4298C32.35 13.9854 32.3061 14.5143 32.3155 15.04H29.1632C29.1726 14.5143 29.1287 13.9854 29.0473 13.48ZM34.2752 17.1164C34.1014 16.717 33.9809 16.2412 33.9277 15.7264C33.815 14.7982 33.9011 13.7265 34.1437 12.9449L34.2626 12.6282C35.2033 10.4021 35.6228 8.86084 35.6228 7.63C35.6228 4.83448 33.4315 2.56 30.7393 2.56C28.0472 2.56 25.8559 4.83448 25.8559 7.63C25.8559 8.86084 26.2753 10.4021 27.2505 12.7203L27.3303 12.9309C27.5776 13.7265 27.6637 14.7982 27.551 15.7389C27.4978 16.2412 27.3773 16.717 27.2082 17.1086C26.8075 18.0024 26.424 18.9868 26.0703 20.032C25.931 20.4392 26.1501 20.8822 26.5602 21.0195C26.9719 21.1583 27.4148 20.9399 27.5526 20.5312C27.8922 19.5312 28.2569 18.5937 28.6404 17.7372C28.7938 17.3847 28.9002 16.9994 28.9832 16.6H32.4955C32.58 17.0009 32.6865 17.3894 32.8414 17.745C34.4661 21.3658 35.435 25.336 35.435 28.3624C35.435 32.317 34.7432 34.618 33.61 36.88H27.8813C27.7075 36.5072 27.2693 36.3278 26.8842 36.4822C26.482 36.6398 26.2847 37.0937 26.4428 37.4946C26.4992 37.6319 26.5633 37.7614 26.6886 38.0079C26.8216 38.2731 27.0924 38.44 27.3898 38.44H34.0889C34.38 38.44 34.6477 38.2778 34.7823 38.0204C36.1143 35.4807 37.0002 32.8661 37.0002 28.3624C37.0002 25.127 35.9797 20.9212 34.2752 17.1164ZM22.3623 38.44H15.6381C14.3249 35.9315 13.522 33.4074 13.522 29.08C13.522 25.1831 15.0543 20.5343 16.4896 17.4845C16.6164 17.2162 16.7166 16.9136 16.8026 16.6H21.1978C21.2839 16.9136 21.384 17.2162 21.5108 17.4845C22.9461 20.5343 24.4785 25.1831 24.4785 29.08C24.4785 33.4074 23.6755 35.9315 22.3623 38.44ZM19.0002 2.56C21.1571 2.56 22.9133 4.31032 22.9133 6.46C22.9133 7.56604 22.4734 9.05116 21.4889 11.2757C21.3997 11.4785 21.323 11.6954 21.2541 11.92H16.7463C16.6774 11.6954 16.6007 11.4785 16.5115 11.2757C15.527 9.05116 15.0872 7.56604 15.0872 6.46C15.0872 4.31032 16.8433 2.56 19.0002 2.56ZM17.0484 13.48H20.952C20.902 13.9964 20.8973 14.5221 20.9348 15.04H17.0656C17.1032 14.5221 17.0985 13.9964 17.0484 13.48ZM22.9211 11.9044C23.998 9.47236 24.4785 7.79224 24.4785 6.46C24.4785 3.4492 22.0211 1 19.0002 1C15.9793 1 13.522 3.4492 13.522 6.46C13.522 7.79224 14.0025 9.47236 15.0793 11.9044C15.6741 13.2507 15.6726 15.5486 15.0731 16.8231C14.3406 18.3768 11.9567 23.854 11.9567 29.08C11.9567 33.9722 12.9225 36.7287 14.4799 39.5913C14.616 39.8424 14.8806 40 15.167 40H22.8334C23.1199 40 23.3844 39.8424 23.5206 39.5913C25.078 36.7287 26.0437 33.9722 26.0437 29.08C26.0437 23.854 23.6599 18.3768 22.9273 16.8231C22.3279 15.5486 22.3263 13.2507 22.9211 11.9044Z"/>
</mask>
<path fill-rule="evenodd" clip-rule="evenodd" d="M7.26108 4.12C9.09082 4.12 10.5793 5.69404 10.5793 7.63C10.5793 8.5894 10.2037 9.93256 9.38195 11.92H5.14021C4.32787 9.98092 3.94282 8.60968 3.94282 7.63C3.94282 5.69404 5.43134 4.12 7.26108 4.12ZM8.83726 15.04H5.68491C5.6943 14.5143 5.65047 13.9854 5.56908 13.48H8.95152C8.87169 13.9854 8.82787 14.5143 8.83726 15.04ZM5.50491 16.6H9.01726C9.10178 17.0009 9.20821 17.3894 9.36317 17.7435C9.74352 18.5937 10.1082 19.5312 10.4479 20.5312C10.5872 20.9399 11.0348 21.1599 11.4402 21.0195C11.8503 20.8822 12.0694 20.4392 11.9301 20.032C11.5764 18.9868 11.1929 18.0024 10.7969 17.1164C10.6232 16.717 10.5026 16.2412 10.4494 15.7264C10.3367 14.7982 10.4228 13.7265 10.6654 12.9449L10.7844 12.6282C11.7251 10.4021 12.1446 8.86084 12.1446 7.63C12.1446 4.83448 9.95326 2.56 7.26108 2.56C4.56891 2.56 2.3776 4.83448 2.3776 7.63C2.3776 8.86084 2.79708 10.4021 3.77221 12.7203L3.85204 12.9309C4.09934 13.7265 4.18543 14.7982 4.07274 15.7389C4.01952 16.2412 3.899 16.717 3.72995 17.1086C2.02074 20.9212 1.00021 25.127 1.00021 28.3624C1.00021 32.8661 1.88613 35.4807 3.21813 38.0204C3.35274 38.2778 3.62039 38.44 3.91152 38.44H10.6106C10.9049 38.44 11.2352 38.1545 11.3698 37.894C11.4371 37.7614 11.5013 37.6319 11.5576 37.4946C11.7157 37.0937 11.5185 36.6398 11.1162 36.4822C10.7343 36.3309 10.2929 36.5072 10.1192 36.88H4.39047C3.25726 34.618 2.56543 32.317 2.56543 28.3624C2.56543 25.336 3.5343 21.3658 5.16213 17.7372C5.31552 17.3847 5.42195 16.9994 5.50491 16.6ZM30.7393 4.12C32.5691 4.12 34.0576 5.69404 34.0576 7.63C34.0576 8.5894 33.682 9.93256 32.8602 11.92H28.6185C27.8061 9.98092 27.4211 8.60968 27.4211 7.63C27.4211 5.69404 28.9096 4.12 30.7393 4.12ZM29.0473 13.48H32.4298C32.35 13.9854 32.3061 14.5143 32.3155 15.04H29.1632C29.1726 14.5143 29.1287 13.9854 29.0473 13.48ZM34.2752 17.1164C34.1014 16.717 33.9809 16.2412 33.9277 15.7264C33.815 14.7982 33.9011 13.7265 34.1437 12.9449L34.2626 12.6282C35.2033 10.4021 35.6228 8.86084 35.6228 7.63C35.6228 4.83448 33.4315 2.56 30.7393 2.56C28.0472 2.56 25.8559 4.83448 25.8559 7.63C25.8559 8.86084 26.2753 10.4021 27.2505 12.7203L27.3303 12.9309C27.5776 13.7265 27.6637 14.7982 27.551 15.7389C27.4978 16.2412 27.3773 16.717 27.2082 17.1086C26.8075 18.0024 26.424 18.9868 26.0703 20.032C25.931 20.4392 26.1501 20.8822 26.5602 21.0195C26.9719 21.1583 27.4148 20.9399 27.5526 20.5312C27.8922 19.5312 28.2569 18.5937 28.6404 17.7372C28.7938 17.3847 28.9002 16.9994 28.9832 16.6H32.4955C32.58 17.0009 32.6865 17.3894 32.8414 17.745C34.4661 21.3658 35.435 25.336 35.435 28.3624C35.435 32.317 34.7432 34.618 33.61 36.88H27.8813C27.7075 36.5072 27.2693 36.3278 26.8842 36.4822C26.482 36.6398 26.2847 37.0937 26.4428 37.4946C26.4992 37.6319 26.5633 37.7614 26.6886 38.0079C26.8216 38.2731 27.0924 38.44 27.3898 38.44H34.0889C34.38 38.44 34.6477 38.2778 34.7823 38.0204C36.1143 35.4807 37.0002 32.8661 37.0002 28.3624C37.0002 25.127 35.9797 20.9212 34.2752 17.1164ZM22.3623 38.44H15.6381C14.3249 35.9315 13.522 33.4074 13.522 29.08C13.522 25.1831 15.0543 20.5343 16.4896 17.4845C16.6164 17.2162 16.7166 16.9136 16.8026 16.6H21.1978C21.2839 16.9136 21.384 17.2162 21.5108 17.4845C22.9461 20.5343 24.4785 25.1831 24.4785 29.08C24.4785 33.4074 23.6755 35.9315 22.3623 38.44ZM19.0002 2.56C21.1571 2.56 22.9133 4.31032 22.9133 6.46C22.9133 7.56604 22.4734 9.05116 21.4889 11.2757C21.3997 11.4785 21.323 11.6954 21.2541 11.92H16.7463C16.6774 11.6954 16.6007 11.4785 16.5115 11.2757C15.527 9.05116 15.0872 7.56604 15.0872 6.46C15.0872 4.31032 16.8433 2.56 19.0002 2.56ZM17.0484 13.48H20.952C20.902 13.9964 20.8973 14.5221 20.9348 15.04H17.0656C17.1032 14.5221 17.0985 13.9964 17.0484 13.48ZM22.9211 11.9044C23.998 9.47236 24.4785 7.79224 24.4785 6.46C24.4785 3.4492 22.0211 1 19.0002 1C15.9793 1 13.522 3.4492 13.522 6.46C13.522 7.79224 14.0025 9.47236 15.0793 11.9044C15.6741 13.2507 15.6726 15.5486 15.0731 16.8231C14.3406 18.3768 11.9567 23.854 11.9567 29.08C11.9567 33.9722 12.9225 36.7287 14.4799 39.5913C14.616 39.8424 14.8806 40 15.167 40H22.8334C23.1199 40 23.3844 39.8424 23.5206 39.5913C25.078 36.7287 26.0437 33.9722 26.0437 29.08C26.0437 23.854 23.6599 18.3768 22.9273 16.8231C22.3279 15.5486 22.3263 13.2507 22.9211 11.9044Z" fill="#D9D9D9"/>
<path fill-rule="evenodd" clip-rule="evenodd" d="M7.26108 4.12C9.09082 4.12 10.5793 5.69404 10.5793 7.63C10.5793 8.5894 10.2037 9.93256 9.38195 11.92H5.14021C4.32787 9.98092 3.94282 8.60968 3.94282 7.63C3.94282 5.69404 5.43134 4.12 7.26108 4.12ZM8.83726 15.04H5.68491C5.6943 14.5143 5.65047 13.9854 5.56908 13.48H8.95152C8.87169 13.9854 8.82787 14.5143 8.83726 15.04ZM5.50491 16.6H9.01726C9.10178 17.0009 9.20821 17.3894 9.36317 17.7435C9.74352 18.5937 10.1082 19.5312 10.4479 20.5312C10.5872 20.9399 11.0348 21.1599 11.4402 21.0195C11.8503 20.8822 12.0694 20.4392 11.9301 20.032C11.5764 18.9868 11.1929 18.0024 10.7969 17.1164C10.6232 16.717 10.5026 16.2412 10.4494 15.7264C10.3367 14.7982 10.4228 13.7265 10.6654 12.9449L10.7844 12.6282C11.7251 10.4021 12.1446 8.86084 12.1446 7.63C12.1446 4.83448 9.95326 2.56 7.26108 2.56C4.56891 2.56 2.3776 4.83448 2.3776 7.63C2.3776 8.86084 2.79708 10.4021 3.77221 12.7203L3.85204 12.9309C4.09934 13.7265 4.18543 14.7982 4.07274 15.7389C4.01952 16.2412 3.899 16.717 3.72995 17.1086C2.02074 20.9212 1.00021 25.127 1.00021 28.3624C1.00021 32.8661 1.88613 35.4807 3.21813 38.0204C3.35274 38.2778 3.62039 38.44 3.91152 38.44H10.6106C10.9049 38.44 11.2352 38.1545 11.3698 37.894C11.4371 37.7614 11.5013 37.6319 11.5576 37.4946C11.7157 37.0937 11.5185 36.6398 11.1162 36.4822C10.7343 36.3309 10.2929 36.5072 10.1192 36.88H4.39047C3.25726 34.618 2.56543 32.317 2.56543 28.3624C2.56543 25.336 3.5343 21.3658 5.16213 17.7372C5.31552 17.3847 5.42195 16.9994 5.50491 16.6ZM30.7393 4.12C32.5691 4.12 34.0576 5.69404 34.0576 7.63C34.0576 8.5894 33.682 9.93256 32.8602 11.92H28.6185C27.8061 9.98092 27.4211 8.60968 27.4211 7.63C27.4211 5.69404 28.9096 4.12 30.7393 4.12ZM29.0473 13.48H32.4298C32.35 13.9854 32.3061 14.5143 32.3155 15.04H29.1632C29.1726 14.5143 29.1287 13.9854 29.0473 13.48ZM34.2752 17.1164C34.1014 16.717 33.9809 16.2412 33.9277 15.7264C33.815 14.7982 33.9011 13.7265 34.1437 12.9449L34.2626 12.6282C35.2033 10.4021 35.6228 8.86084 35.6228 7.63C35.6228 4.83448 33.4315 2.56 30.7393 2.56C28.0472 2.56 25.8559 4.83448 25.8559 7.63C25.8559 8.86084 26.2753 10.4021 27.2505 12.7203L27.3303 12.9309C27.5776 13.7265 27.6637 14.7982 27.551 15.7389C27.4978 16.2412 27.3773 16.717 27.2082 17.1086C26.8075 18.0024 26.424 18.9868 26.0703 20.032C25.931 20.4392 26.1501 20.8822 26.5602 21.0195C26.9719 21.1583 27.4148 20.9399 27.5526 20.5312C27.8922 19.5312 28.2569 18.5937 28.6404 17.7372C28.7938 17.3847 28.9002 16.9994 28.9832 16.6H32.4955C32.58 17.0009 32.6865 17.3894 32.8414 17.745C34.4661 21.3658 35.435 25.336 35.435 28.3624C35.435 32.317 34.7432 34.618 33.61 36.88H27.8813C27.7075 36.5072 27.2693 36.3278 26.8842 36.4822C26.482 36.6398 26.2847 37.0937 26.4428 37.4946C26.4992 37.6319 26.5633 37.7614 26.6886 38.0079C26.8216 38.2731 27.0924 38.44 27.3898 38.44H34.0889C34.38 38.44 34.6477 38.2778 34.7823 38.0204C36.1143 35.4807 37.0002 32.8661 37.0002 28.3624C37.0002 25.127 35.9797 20.9212 34.2752 17.1164ZM22.3623 38.44H15.6381C14.3249 35.9315 13.522 33.4074 13.522 29.08C13.522 25.1831 15.0543 20.5343 16.4896 17.4845C16.6164 17.2162 16.7166 16.9136 16.8026 16.6H21.1978C21.2839 16.9136 21.384 17.2162 21.5108 17.4845C22.9461 20.5343 24.4785 25.1831 24.4785 29.08C24.4785 33.4074 23.6755 35.9315 22.3623 38.44ZM19.0002 2.56C21.1571 2.56 22.9133 4.31032 22.9133 6.46C22.9133 7.56604 22.4734 9.05116 21.4889 11.2757C21.3997 11.4785 21.323 11.6954 21.2541 11.92H16.7463C16.6774 11.6954 16.6007 11.4785 16.5115 11.2757C15.527 9.05116 15.0872 7.56604 15.0872 6.46C15.0872 4.31032 16.8433 2.56 19.0002 2.56ZM17.0484 13.48H20.952C20.902 13.9964 20.8973 14.5221 20.9348 15.04H17.0656C17.1032 14.5221 17.0985 13.9964 17.0484 13.48ZM22.9211 11.9044C23.998 9.47236 24.4785 7.79224 24.4785 6.46C24.4785 3.4492 22.0211 1 19.0002 1C15.9793 1 13.522 3.4492 13.522 6.46C13.522 7.79224 14.0025 9.47236 15.0793 11.9044C15.6741 13.2507 15.6726 15.5486 15.0731 16.8231C14.3406 18.3768 11.9567 23.854 11.9567 29.08C11.9567 33.9722 12.9225 36.7287 14.4799 39.5913C14.616 39.8424 14.8806 40 15.167 40H22.8334C23.1199 40 23.3844 39.8424 23.5206 39.5913C25.078 36.7287 26.0437 33.9722 26.0437 29.08C26.0437 23.854 23.6599 18.3768 22.9273 16.8231C22.3279 15.5486 22.3263 13.2507 22.9211 11.9044Z" stroke="#D9D9D9" mask="url(#path-1-outside-1)"/>
</svg>
