<svg width="41" height="36" viewBox="0 0 41 36" fill="none" xmlns="http://www.w3.org/2000/svg">
<path d="M33.712 10.6502L33.5319 10.4768L33.712 10.6502C34.1095 10.2377 34.1095 9.57118 33.712 9.15864L32.152 7.5396C31.7494 7.12183 31.0915 7.12183 30.689 7.5396C30.2915 7.95214 30.2915 8.61865 30.689 9.03119L32.249 10.6502C32.4495 10.8583 32.7143 10.9648 32.9797 10.9648C33.2463 10.9648 33.5113 10.8585 33.712 10.6502ZM24.7167 23.8033L24.7179 23.8039C24.8624 23.8778 25.0198 23.9172 25.1797 23.9172C25.4508 23.9172 25.7153 23.8067 25.912 23.6026L30.2904 19.06H37.6597C38.2389 19.06 38.6897 18.5762 38.6897 18.0005C38.6897 17.4228 38.2386 16.941 37.6597 16.941H29.8597C29.5849 16.941 29.3221 17.0534 29.129 17.2539L24.9763 21.5638L16.2843 17.0533L16.283 17.0526C16.1402 16.9796 15.9811 16.941 15.8197 16.941H3.33969C2.76271 16.941 2.30969 17.4224 2.30969 18.0005C2.30969 18.5766 2.76239 19.06 3.33969 19.06H15.5746L24.7167 23.8033ZM39.8815 15.517L39.8824 15.5161C40.0669 15.3395 40.1817 15.0994 40.2078 14.8446L40.208 14.8432C40.4682 12.1608 39.55 9.54446 37.5768 7.2785L37.5767 7.27841C34.0505 3.23312 27.502 0.750488 20.4997 0.750488C13.4896 0.750488 6.93467 3.23963 3.41152 7.29325L3.41143 7.29336C1.44125 9.56274 0.527923 12.1841 0.796172 14.8698L0.796226 14.8703C0.850479 15.4021 1.28413 15.8219 1.82025 15.8219H39.1573C39.4283 15.8219 39.701 15.688 39.8815 15.517ZM16.552 7.41214C16.9495 6.9996 16.9495 6.33309 16.552 5.92055C16.1494 5.50279 15.4915 5.50279 15.089 5.92055L13.529 7.5396C13.1315 7.95214 13.1315 8.61865 13.529 9.03119C13.7295 9.23925 13.9943 9.34573 14.2597 9.34573C14.5263 9.34573 14.7913 9.23945 14.992 9.03119L16.552 7.41214ZM27.472 10.6502C27.8695 10.2377 27.8695 9.57118 27.472 9.15864C27.0694 8.74088 26.4115 8.74088 26.009 9.15864L24.449 10.7777C24.0515 11.1902 24.0515 11.8567 24.449 12.2693C24.6495 12.4773 24.9143 12.5838 25.1797 12.5838C25.4463 12.5838 25.7113 12.4775 25.912 12.2693L27.472 10.6502ZM4.94802 8.70597L4.75929 8.54201L4.94802 8.70597C8.06005 5.12381 14.0105 2.86954 20.4997 2.86954C26.9811 2.86954 32.9286 5.11897 36.0422 8.69324C37.3954 10.2471 38.1202 11.9624 38.1849 13.7029H2.816C2.8805 11.967 3.60095 10.2565 4.94802 8.70597ZM10.312 12.2693C10.7095 11.8567 10.7095 11.1902 10.312 10.7777L8.75196 9.15864C8.34944 8.74088 7.69151 8.74088 7.28898 9.15864C6.89149 9.57118 6.89149 10.2377 7.28898 10.6502L8.84898 12.2693C9.04946 12.4773 9.31434 12.5838 9.57969 12.5838C9.84633 12.5838 10.1113 12.4775 10.312 12.2693ZM22.792 7.41214C23.1895 6.9996 23.1895 6.33309 22.792 5.92055L21.232 4.3015C20.8294 3.88374 20.1715 3.88374 19.769 4.3015C19.3715 4.71404 19.3715 5.38055 19.769 5.79309L21.329 7.41214C21.5295 7.62021 21.7943 7.72668 22.0597 7.72668C22.3263 7.72668 22.5913 7.6204 22.792 7.41214ZM4.11969 20.1791C2.25235 20.1791 0.749695 21.7504 0.749695 23.6672C0.749695 25.5822 2.25227 27.1553 4.11969 27.1553H36.8797C38.7488 27.1553 40.2497 25.5821 40.2497 23.6672C40.2497 21.7505 38.7487 20.1791 36.8797 20.1791H31.156C30.5772 20.1791 30.1261 20.6609 30.1261 21.2386C30.1261 21.8143 30.5769 22.2981 31.156 22.2981H36.8797C37.5941 22.2981 38.1897 22.9027 38.1897 23.6672C38.1897 24.4302 37.5939 25.0362 36.8797 25.0362H4.11969C3.40688 25.0362 2.80969 24.43 2.80969 23.6672C2.80969 22.9028 3.40672 22.2981 4.11969 22.2981H15.0865C15.6657 22.2981 16.1165 21.8143 16.1165 21.2386C16.1165 20.6609 15.6654 20.1791 15.0865 20.1791H4.11969ZM4.89969 33.1314C3.75632 33.1314 2.80969 32.1626 2.80969 30.9529C2.80969 30.6356 3.05712 30.3933 3.33969 30.3933H37.6597C37.9435 30.3933 38.1897 30.6352 38.1897 30.9529C38.1897 32.1627 37.2445 33.1314 36.0997 33.1314H4.89969ZM37.6597 28.2743H3.33969C1.90294 28.2743 0.749695 29.483 0.749695 30.9529C0.749695 33.3132 2.60327 35.2505 4.89969 35.2505H36.0997C38.3977 35.2505 40.2497 33.3131 40.2497 30.9529C40.2497 29.4831 39.0981 28.2743 37.6597 28.2743Z" fill="#8B8985" stroke="#8B8985" stroke-width="0.5"/>
</svg>
