<svg width="41" height="34" viewBox="0 0 41 34" fill="none" xmlns="http://www.w3.org/2000/svg">
<path d="M5.5453 13.5684L5.5453 13.5684L5.54772 13.5677C5.85804 13.4855 6.16549 13.4405 6.46021 13.4405H34.5402C34.8349 13.4405 35.1424 13.4855 35.4527 13.5678L35.4551 13.5684C37.0294 13.9689 38.1902 15.3534 38.1902 17V24.619C38.1902 24.8948 37.9579 25.131 37.6602 25.131H36.1002H31.4202H9.58021H4.90021H3.34021C3.04249 25.131 2.81021 24.8948 2.81021 24.619V17C2.81021 15.3534 3.97097 13.9689 5.5453 13.5684ZM6.60843 11.4167L8.72414 3.16188L8.72415 3.16188L8.72463 3.15996C8.77995 2.93681 8.98618 2.77381 9.23701 2.77381H31.7634C32.0132 2.77381 32.2204 2.9359 32.2774 3.16482L32.2778 3.16644L34.392 11.4167H6.60843ZM25.1802 22.5833C25.7433 22.5833 26.2102 22.1356 26.2102 21.5714C26.2102 21.0073 25.7433 20.5595 25.1802 20.5595H15.8202C15.2571 20.5595 14.7902 21.0073 14.7902 21.5714C14.7902 22.1356 15.2571 22.5833 15.8202 22.5833H25.1802ZM25.1802 19.5357C25.7433 19.5357 26.2102 19.088 26.2102 18.5238C26.2102 17.9597 25.7433 17.5119 25.1802 17.5119H15.8202C15.2571 17.5119 14.7902 17.9597 14.7902 18.5238C14.7902 19.088 15.2571 19.5357 15.8202 19.5357H25.1802ZM32.2002 20.5595C31.473 20.5595 30.8902 19.9831 30.8902 19.2857C30.8902 18.5883 31.473 18.0119 32.2002 18.0119C32.9274 18.0119 33.5102 18.5883 33.5102 19.2857C33.5102 19.9831 32.9274 20.5595 32.2002 20.5595ZM32.2002 15.9881C30.347 15.9881 28.8302 17.4614 28.8302 19.2857C28.8302 21.11 30.347 22.5833 32.2002 22.5833C34.0534 22.5833 35.5702 21.11 35.5702 19.2857C35.5702 17.4614 34.0534 15.9881 32.2002 15.9881ZM8.80021 20.5595C8.07299 20.5595 7.49021 19.9831 7.49021 19.2857C7.49021 18.5883 8.07299 18.0119 8.80021 18.0119C9.52743 18.0119 10.1102 18.5883 10.1102 19.2857C10.1102 19.9831 9.52743 20.5595 8.80021 20.5595ZM8.80021 15.9881C6.94703 15.9881 5.43021 17.4614 5.43021 19.2857C5.43021 21.11 6.94703 22.5833 8.80021 22.5833C10.6534 22.5833 12.1702 21.11 12.1702 19.2857C12.1702 17.4614 10.6534 15.9881 8.80021 15.9881ZM35.0702 29.9524C35.0702 30.6498 34.4874 31.2262 33.7602 31.2262C33.033 31.2262 32.4502 30.6498 32.4502 29.9524V27.1548H35.0702V29.9524ZM8.55021 29.9524C8.55021 30.6498 7.96743 31.2262 7.24021 31.2262C6.51299 31.2262 5.93021 30.6498 5.93021 29.9524V27.1548H8.55021V29.9524ZM36.6204 11.8208L34.2773 2.67959C34.2773 2.67938 34.2772 2.67917 34.2772 2.67896C33.9923 1.54025 32.9551 0.75 31.7634 0.75H9.23701C8.04571 0.75 7.0082 1.53988 6.72484 2.67434C6.72477 2.6746 6.72471 2.67485 6.72464 2.67511L4.38006 11.8208C2.26649 12.6352 0.750214 14.6364 0.750214 17V24.619C0.750214 26.0228 1.91759 27.1548 3.34021 27.1548H3.87021V29.9524C3.87021 31.7767 5.38703 33.25 7.24021 33.25C9.0934 33.25 10.6102 31.7767 10.6102 29.9524V27.1548H30.3902V29.9524C30.3902 31.7767 31.907 33.25 33.7602 33.25C35.6134 33.25 37.1302 31.7767 37.1302 29.9524V27.1548H37.6602C39.0828 27.1548 40.2502 26.0228 40.2502 24.619V17C40.2502 14.6364 38.7339 12.6352 36.6204 11.8208Z" fill="#D9D9D9" stroke="#D9D9D9" stroke-width="0.5"/>
</svg>
