<svg width="42" height="38" viewBox="0 0 42 38" fill="none" xmlns="http://www.w3.org/2000/svg">
<path d="M25.8558 9.16295L25.856 9.16316C26.0316 9.33654 26.1569 9.46076 26.2425 9.56795C26.3274 9.67429 26.3477 9.73336 26.3507 9.77119C26.3534 9.80494 26.3457 9.86447 26.2697 9.9789C26.1921 10.0956 26.0611 10.2433 25.8558 10.4464C25.4455 10.852 25.4502 11.5094 25.8642 11.9103L26.0381 11.7307L25.8642 11.9103C26.0688 12.1084 26.3372 12.206 26.5997 12.206C26.8677 12.206 27.1385 12.1063 27.345 11.9022L27.3451 11.9022C28.3575 10.9011 28.5804 10.0231 28.3947 9.27598C28.22 8.57277 27.6934 8.05176 27.3609 7.72277L27.3452 7.70724L27.3449 7.70702C27.1694 7.5337 27.0442 7.40938 26.9586 7.30211C26.8736 7.19568 26.8533 7.13644 26.8503 7.09843C26.8476 7.06453 26.8553 7.00495 26.9313 6.89067C27.0088 6.77414 27.1398 6.62666 27.345 6.424L27.345 6.42395C27.7555 6.01831 27.7508 5.36083 27.3368 4.95993C26.9261 4.56223 26.2636 4.56357 25.856 4.96794C24.8434 5.96828 24.6206 6.84628 24.8063 7.5936C24.9811 8.29749 25.5083 8.81911 25.8409 9.14814L25.8558 9.16295ZM9.85583 9.16295L9.85604 9.16316C10.0316 9.33654 10.1569 9.46076 10.2425 9.56795C10.3274 9.67429 10.3477 9.73336 10.3507 9.77119C10.3534 9.80494 10.3457 9.86447 10.2697 9.9789C10.1921 10.0956 10.0611 10.2433 9.85584 10.4464C9.44553 10.852 9.45019 11.5094 9.86419 11.9103L9.8642 11.9103C10.0688 12.1084 10.3372 12.206 10.5997 12.206C10.8677 12.206 11.1385 12.1063 11.345 11.9022L11.3451 11.9022C12.3575 10.9011 12.5804 10.0231 12.3947 9.27598C12.22 8.57278 11.6934 8.05176 11.3609 7.72278L11.3452 7.70724L11.3449 7.70702C11.1694 7.5337 11.0442 7.40938 10.9586 7.30211C10.8736 7.19568 10.8533 7.13644 10.8503 7.09843C10.8476 7.06453 10.8553 7.00495 10.9313 6.89067C11.0088 6.77414 11.1398 6.62666 11.345 6.424L11.345 6.42395C11.7555 6.01831 11.7508 5.36083 11.3368 4.95993C10.9261 4.56223 10.2636 4.56357 9.85599 4.96794C8.84343 5.96828 8.62063 6.84628 8.80627 7.5936C8.98111 8.29748 9.5083 8.8191 9.84085 9.14813L9.85583 9.16295ZM18.1997 11.8527C17.8173 11.6352 17.6861 11.1578 17.9069 10.7821C19.0616 8.8264 18.5777 8.0061 17.9077 6.87046L18.1997 11.8527ZM17.685 6.98507L17.6916 6.99612C17.6916 6.99615 17.6916 6.99618 17.6916 6.99621C18.0322 7.57353 18.2887 8.0156 18.3428 8.54352C18.3959 9.06166 18.2548 9.70125 17.6916 10.655L17.6914 10.6555C17.3984 11.1539 17.5751 11.785 18.0761 12.07L18.078 12.0711C18.2434 12.1633 18.4232 12.206 18.5997 12.206C18.959 12.206 19.3127 12.025 19.5094 11.6919L19.5094 11.6918C20.3392 10.2853 20.5386 9.1655 20.4181 8.22451C20.2996 7.29919 19.8737 6.57708 19.5173 5.97287L19.5094 5.95949L19.5093 5.95932C19.1688 5.38288 18.9123 4.94076 18.8582 4.41265C18.8051 3.89428 18.9462 3.2543 19.5094 2.30055L19.5094 2.30052C19.803 1.803 19.6255 1.17169 19.123 0.886945C18.625 0.604464 17.9846 0.770868 17.692 1.26308L17.6916 1.2638C16.8618 2.67035 16.6624 3.79049 16.7829 4.73165C16.9016 5.65832 17.3284 6.38105 17.685 6.98507ZM38.8326 20.6616L38.8327 20.6617C39.2817 21.4652 39.2492 22.4351 38.7318 23.2619C37.6598 24.9608 35.6973 25.9581 32.3776 26.3622C33.3132 23.8638 34.0524 21.1225 34.4695 18.5421C36.6617 18.7504 38.1994 19.5277 38.8326 20.6616ZM27.5904 31.2499L27.5903 31.2501C27.2336 31.7462 26.6036 32.0539 25.8957 32.0539H9.70529C8.99736 32.0539 8.36734 31.7462 8.01068 31.2501L8.0105 31.2499C6.71219 29.4487 5.47918 26.7084 4.543 23.7562C3.63863 20.9042 3.01791 17.8755 2.87963 15.3365H32.7214C32.5831 17.8755 31.962 20.9042 31.0574 23.7562C30.121 26.7084 28.888 29.4487 27.5904 31.2499ZM40.674 19.6665C40.0611 18.5693 38.4805 16.8805 34.7359 16.5069C34.8089 15.7442 34.8497 15.0044 34.8497 14.3039C34.8497 13.729 34.3761 13.2713 33.7997 13.2713H1.79969C1.22523 13.2713 0.749695 13.7287 0.749695 14.3039C0.749695 17.144 1.3859 20.6338 2.39322 23.9287C3.40012 27.2223 4.78524 30.3455 6.29764 32.4453L6.29772 32.4454C7.05728 33.4988 8.33403 34.1191 9.70529 34.1191H25.8957C27.267 34.1191 28.5437 33.4988 29.3033 32.4454L29.3033 32.4453C30.0802 31.3671 30.819 30.0165 31.4919 28.5222C36.0675 28.1582 38.9161 26.887 40.5183 24.3466L40.5187 24.346C41.4327 22.8878 41.4944 21.1358 40.674 19.6665L40.4557 19.7884L40.674 19.6665ZM30.5997 37.2495C31.1758 37.2495 31.6497 36.7937 31.6497 36.2169C31.6497 35.642 31.1761 35.1843 30.5997 35.1843H4.99969C4.42523 35.1843 3.94969 35.6417 3.94969 36.2169C3.94969 36.794 4.42556 37.2495 4.99969 37.2495H30.5997Z" fill="#D9D9D9" stroke="#D9D9D9" stroke-width="0.5"/>
</svg>
