<svg width="42" height="42" viewBox="0 0 42 42" fill="none" xmlns="http://www.w3.org/2000/svg">
<path d="M26.3502 25.8C26.3502 27.3182 25.7813 28.2026 24.958 28.7344C24.1759 29.2396 23.1368 29.4447 22.0502 29.5138V22.4182C23.2437 22.7894 24.2903 23.1766 25.0566 23.683C25.8798 24.227 26.3502 24.8873 26.3502 25.8ZM15.6502 16.2C15.6502 14.6818 16.2191 13.7974 17.0425 13.2656C17.8245 12.7604 18.8636 12.5553 19.9502 12.4862V19.5818C18.7567 19.2106 17.7101 18.8234 16.9438 18.317C16.1207 17.773 15.6502 17.1127 15.6502 16.2ZM26.3502 16.2C26.3502 16.7797 26.8205 17.25 27.4002 17.25C27.9799 17.25 28.4502 16.7797 28.4502 16.2C28.4502 14.397 27.8883 12.984 26.7501 11.9999C25.6623 11.0593 24.08 10.5386 22.0502 10.4056V9.8C22.0502 9.22033 21.5799 8.75 21.0002 8.75C20.4205 8.75 19.9502 9.22033 19.9502 9.8V10.4056C17.9204 10.5386 16.3381 11.0593 15.2503 11.9999C14.1121 12.984 13.5502 14.397 13.5502 16.2C13.5502 18.0557 14.5575 19.2765 15.8535 20.1142C17.1315 20.9402 18.7173 21.4124 19.9502 21.7792V29.5138C18.8636 29.4447 17.8245 29.2396 17.0425 28.7344C16.2191 28.2026 15.6502 27.3182 15.6502 25.8C15.6502 25.2203 15.1799 24.75 14.6002 24.75C14.0205 24.75 13.5502 25.2203 13.5502 25.8C13.5502 27.603 14.1121 29.016 15.2503 30.0001C16.3381 30.9407 17.9204 31.4614 19.9502 31.5944V32.2C19.9502 32.7797 20.4205 33.25 21.0002 33.25C21.5799 33.25 22.0502 32.7797 22.0502 32.2V31.5944C24.08 31.4614 25.6623 30.9407 26.7501 30.0001C27.8883 29.016 28.4502 27.603 28.4502 25.8C28.4502 23.9443 27.4429 22.7235 26.1469 21.8858C24.8689 21.0598 23.2832 20.5876 22.0502 20.2208V12.4862C23.1368 12.5553 24.1759 12.7604 24.958 13.2656C25.7813 13.7974 26.3502 14.6818 26.3502 16.2ZM21.0002 39.15C10.9927 39.15 2.85021 31.0075 2.85021 21C2.85021 10.9925 10.9927 2.85 21.0002 2.85C31.0077 2.85 39.1502 10.9925 39.1502 21C39.1502 31.0075 31.0077 39.15 21.0002 39.15ZM21.0002 0.75C9.83334 0.75 0.750214 9.83313 0.750214 21C0.750214 32.1669 9.83334 41.25 21.0002 41.25C32.1671 41.25 41.2502 32.1669 41.2502 21C41.2502 9.83313 32.1671 0.75 21.0002 0.75Z" fill="#D9D9D9" stroke="#D9D9D9" stroke-width="0.5"/>
</svg>
