<svg width="41" height="39" viewBox="0 0 41 39" fill="none" xmlns="http://www.w3.org/2000/svg">
<path d="M1.15494 13.5222C1.06446 13.3919 1.0005 13.2391 1.0005 13.0654V13.0605C1.0005 13.0583 1.00117 13.0564 1.00189 13.0544C1.00272 13.052 1.00362 13.0495 1.00362 13.0461C1.0083 12.8739 1.07226 12.7227 1.16586 12.594M1.15494 13.5222L0.944991 13.658C0.929217 13.6336 0.921841 13.6114 0.918374 13.5985C0.916704 13.5923 0.915802 13.5877 0.915514 13.5862L0.915425 13.5857C0.915324 13.5852 0.91528 13.5849 0.915858 13.5882L0.915974 13.5889C0.916772 13.5936 0.91951 13.6095 0.925311 13.6286M1.15494 13.5222C1.15934 13.5291 1.16064 13.5366 1.16191 13.544C1.16335 13.5523 1.16476 13.5605 1.17054 13.5673L40.014 12.3935L40.0138 12.3933C40.0403 12.4258 40.0541 12.4581 40.0615 12.4802C40.0618 12.481 40.062 12.4818 40.0623 12.4826C40.1615 12.6296 40.2349 12.8072 40.2448 13.012C40.2449 13.0123 40.2449 13.0126 40.245 13.0129C40.248 13.0272 40.2505 13.045 40.2505 13.0654C40.2505 13.2868 40.1728 13.4762 40.0741 13.6287C40.0733 13.6313 40.0725 13.6339 40.0716 13.6366C40.0633 13.6612 40.0492 13.6921 40.0248 13.7227L21.3064 37.8526L21.3057 37.8535C21.2675 37.9022 21.2247 37.935 21.1971 37.9549C21.1791 37.9679 21.1693 37.9746 21.1623 37.9793C21.1568 37.9831 21.1531 37.9856 21.1484 37.9892C21.148 37.9895 21.1476 37.9899 21.1472 37.9903C21.1211 38.0147 21.0808 38.0525 21.0308 38.0853L21.0228 38.0906L21.0227 38.0904C20.8803 38.1762 20.7041 38.2502 20.5005 38.2502C20.2956 38.2502 20.1192 38.1764 19.9771 38.0897L19.9745 38.088C19.9249 38.0569 19.8811 38.0166 19.8586 37.9958C19.8557 37.9932 19.8532 37.9908 19.851 37.9889C19.8459 37.9848 19.8418 37.9819 19.8345 37.9768C19.8278 37.9722 19.8186 37.9658 19.8035 37.9549C19.7771 37.9358 19.7353 37.9042 19.6973 37.8579L19.6929 37.8526L19.693 37.8526L0.974653 13.7226C0.950198 13.692 0.936147 13.6612 0.927863 13.6366C0.926953 13.6339 0.926103 13.6312 0.925311 13.6286M1.15494 13.5222L0.949591 13.6648C0.941363 13.653 0.933261 13.6409 0.925311 13.6286M0.925311 13.6286C0.826043 13.4749 0.7505 13.2857 0.7505 13.0654V13.0605C0.7505 13.0427 0.752327 13.0269 0.754739 13.0136M0.754739 13.0136C0.754289 13.0221 0.753946 13.0307 0.753712 13.0393L0.75362 13.0393V13.0461C0.75362 13.0438 0.753654 13.0415 0.75372 13.0393C0.75421 13.0227 0.756452 13.0077 0.759397 12.9948C0.761694 12.9847 0.764323 12.9765 0.765568 12.9728M0.754739 13.0136C0.756253 13.0053 0.757998 12.998 0.759666 12.9919C0.761716 12.9843 0.763704 12.9783 0.764811 12.975L0.765568 12.9728M0.754739 13.0136C0.765502 12.8106 0.837473 12.6339 0.935789 12.4869M0.765568 12.9728C0.765923 12.9718 0.766165 12.9711 0.766256 12.9709L0.766072 12.9714L0.765568 12.9728ZM0.935789 12.4869C0.929988 12.5057 0.927165 12.5216 0.926296 12.5265L0.926191 12.5271C0.925604 12.5304 0.925367 12.5317 0.92537 12.5317C0.925377 12.5317 0.926247 12.5271 0.927242 12.5231C0.92936 12.5145 0.934407 12.4965 0.945769 12.4754L1.16586 12.594M0.935789 12.4869C0.944869 12.4734 0.954175 12.46 0.963678 12.447L1.16586 12.594M0.935789 12.4869C0.936322 12.4852 0.936881 12.4835 0.937466 12.4817C0.945163 12.4584 0.959228 12.4256 0.985952 12.3928M1.16586 12.594C1.16943 12.5874 1.17071 12.5801 1.17195 12.5731C1.17342 12.5647 1.17482 12.5567 1.1799 12.5506M1.1799 12.5506L0.985454 12.3935L0.985952 12.3928M1.1799 12.5506L0.987642 12.3908C0.987073 12.3915 0.98651 12.3922 0.985952 12.3928M1.1799 12.5506L40.0118 12.3908L32.214 2.74129L32.0195 2.89842L32.214 2.74128C32.1813 2.70082 32.1467 2.67173 32.1215 2.65202C32.1014 2.6362 32.0938 2.63078 32.0882 2.62669C32.0835 2.62334 32.0801 2.62088 32.072 2.61431C32.0667 2.60964 32.0637 2.60676 32.0595 2.60269C32.0547 2.59803 32.0483 2.59181 32.035 2.57955C32.0162 2.56217 31.9873 2.5367 31.9498 2.51369C31.8602 2.45823 31.7661 2.42836 31.6937 2.40809L31.6899 2.40629C31.6831 2.40301 31.6692 2.3964 31.6524 2.39019C31.6398 2.38552 31.6238 2.38036 31.605 2.37637C31.5958 2.3742 31.587 2.37263 31.5786 2.37155C31.5773 2.3713 31.576 2.37106 31.5747 2.37082C31.5699 2.36998 31.5651 2.36927 31.5603 2.3687L20.6485 0.761224C20.648 0.761159 20.6476 0.761094 20.6472 0.76103C20.5502 0.745935 20.4501 0.74608 20.3526 0.760971C20.3523 0.761013 20.3521 0.761056 20.3518 0.761099L9.43917 2.3687C9.43428 2.36928 9.42939 2.37 9.42452 2.37087C9.42214 2.37129 9.41979 2.37174 9.41747 2.37222C9.41061 2.37325 9.40392 2.37453 9.39743 2.37604C9.3543 2.3849 9.32218 2.40058 9.3098 2.40662L9.30891 2.40706L9.30639 2.40829C9.23169 2.4289 9.14143 2.45834 9.05367 2.51214C9.01512 2.53504 8.98559 2.56044 8.96582 2.57845C8.94928 2.59351 8.94364 2.59905 8.93946 2.60316C8.93583 2.60672 8.93331 2.6092 8.92573 2.61586C8.91966 2.62099 8.91599 2.6237 8.90972 2.62833C8.90362 2.63283 8.89507 2.63914 8.87947 2.65125C8.85523 2.67006 8.81911 2.69964 8.78546 2.74128L8.9799 2.89842L8.78545 2.74129L0.985952 12.3928M40.2459 13.0461L40.2458 13.0415L40.2459 13.0461ZM31.0746 12.011L32.0678 5.86867L37.031 12.011H31.0746ZM37.0862 14.1197L24.0317 30.9479L30.559 14.1197H37.0862ZM16.9677 30.9479L3.91324 14.1197H10.4405L16.9677 30.9479ZM3.96853 12.011L8.93312 5.8687L9.92493 12.011H3.96853ZM10.7679 4.30406L17.9515 3.24579L11.7941 10.6523L10.7679 4.30406ZM30.2331 4.30405L29.2054 10.6523L23.0494 3.24577L30.2331 4.30405ZM27.6304 12.011H13.3691L20.5005 3.43112L27.6304 12.011ZM12.6569 14.1197H28.3426L20.5005 34.3392L12.6569 14.1197Z" fill="#D9D9D9" stroke="#D9D9D9" stroke-width="0.5"/>
</svg>
