<svg width="41" height="41" viewBox="0 0 41 41" fill="none" xmlns="http://www.w3.org/2000/svg">
<path d="M39.9498 19.7716L39.9494 19.7711L35.2694 15.0911L21.2293 1.05113L21.2289 1.05068C20.8256 0.649448 20.1751 0.649449 19.7718 1.05068L19.7713 1.05113L5.73131 15.0911L1.05131 19.7711L1.05086 19.7716C0.649632 20.1749 0.649631 20.8254 1.05086 21.2287L1.05177 21.2296C1.45505 21.6308 2.10561 21.6308 2.50889 21.2296L2.50939 21.2291L5.43033 18.3068V39.2201C5.43033 39.7888 5.8917 40.2501 6.46033 40.2501H14.2603H26.7403H34.5403C35.109 40.2501 35.5703 39.7888 35.5703 39.2201V18.3068L38.4913 21.2291L38.4922 21.2301C38.6934 21.4291 38.9569 21.5301 39.2203 21.5301C39.4838 21.5301 39.7473 21.4291 39.9484 21.2301L39.9498 21.2287C40.351 20.8254 40.351 20.1749 39.9498 19.7716ZM33.5103 38.1901H27.7703V26.7401C27.7703 22.7317 24.5088 19.4701 20.5003 19.4701C16.4919 19.4701 13.2303 22.7317 13.2303 26.7401V38.1901H7.49033V16.2466L20.5003 3.23662L33.5103 16.2466V38.1901ZM15.2903 38.1901V26.7401C15.2903 23.8674 17.6276 21.5301 20.5003 21.5301C23.3731 21.5301 25.7103 23.8674 25.7103 26.7401V38.1901H15.2903Z" fill="#8B8985" stroke="#8B8985" stroke-width="0.5"/>
</svg>
