<svg width="29" height="42" viewBox="0 0 29 42" fill="none" xmlns="http://www.w3.org/2000/svg">
<mask id="path-1-outside-1" maskUnits="userSpaceOnUse" x="0.047699" y="-0.000732422" width="29" height="42" fill="black">
<rect fill="white" x="0.047699" y="-0.000732422" width="29" height="42"/>
<path fill-rule="evenodd" clip-rule="evenodd" d="M24.6245 39.2617C24.4292 39.4025 24.183 39.4489 23.9448 39.3897C23.6716 39.3177 23.3651 39.2281 23.0252 39.1305C21.1892 38.6009 18.4145 37.7993 14.4995 37.7993C10.5861 37.7993 7.81148 38.6009 5.97548 39.1305C5.6356 39.2281 5.32907 39.3177 5.05589 39.3897C4.81607 39.4521 4.56989 39.4025 4.37613 39.2617C4.26336 39.1785 4.07278 38.9929 4.05372 38.6649L3.73448 33.0729C6.01678 32.2681 9.59983 31.3993 14.4995 31.3993C19.4008 31.3993 22.9839 32.2681 25.2662 33.0729L24.947 38.6633C24.9279 38.9929 24.7373 39.1785 24.6245 39.2617ZM4.17601 7.39927H5.76425V12.7625C5.74995 12.7465 5.72772 12.7417 5.71184 12.7273C5.55142 12.5753 5.37036 12.4521 5.16866 12.3641C5.14007 12.3529 5.10989 12.3449 5.07972 12.3337C4.86372 12.2537 4.63501 12.1993 4.39519 12.1993H4.17601V7.39927ZM7.35248 4.19927H8.94072V4.99927V15.4921C8.38166 15.1641 7.8496 14.7897 7.35248 14.3705V6.59927V4.19927ZM12.1172 5.79927V16.7225C12.0791 16.7129 12.041 16.7049 12.0028 16.6953C11.52 16.5865 11.0483 16.4489 10.5957 16.2761C10.5734 16.2681 10.5512 16.2601 10.529 16.2521V5.79927H12.1172ZM13.7054 2.59927H15.2937V4.99927V16.9417C15.192 16.9481 15.0935 16.9593 14.9887 16.9641C14.6631 16.9801 14.3375 16.9801 14.012 16.9641C13.9071 16.9593 13.8087 16.9481 13.7054 16.9417V4.99927V2.59927ZM18.4701 5.79927V16.2521C18.4495 16.2601 18.4272 16.2681 18.405 16.2761C17.9524 16.4489 17.4807 16.5865 16.9978 16.6953C16.9597 16.7049 16.9216 16.7129 16.8819 16.7225V5.79927H18.4701ZM20.0584 4.19927H21.6466V6.59927V14.3705C21.1495 14.7897 20.619 15.1641 20.0584 15.4921V4.99927V4.19927ZM24.8231 7.39927V12.1993H24.6055C24.3657 12.1993 24.137 12.2537 23.921 12.3337C23.8908 12.3449 23.8606 12.3529 23.832 12.3641C23.6303 12.4521 23.4492 12.5753 23.2872 12.7273C23.2714 12.7417 23.2507 12.7465 23.2348 12.7625V7.39927H24.8231ZM2.63542 13.7993H3.38189H4.39519C4.50795 13.7993 4.60484 13.8441 4.67154 13.9257L4.67472 13.9289C4.75731 14.0313 4.88754 14.1833 5.04478 14.3561C5.18454 14.5129 5.34654 14.6777 5.52284 14.8537L5.57048 14.9017C6.93795 16.2633 9.35207 18.0377 12.878 18.4809C13.3417 18.5401 13.8865 18.5993 14.4995 18.5993C15.1142 18.5993 15.659 18.5401 16.1227 18.4809C19.6454 18.0377 22.058 16.2649 23.427 14.9049C23.4477 14.8857 23.4651 14.8681 23.4826 14.8489C23.6573 14.6745 23.8177 14.5113 23.9559 14.3561C24.1115 14.1833 24.2402 14.0345 24.3244 13.9321C24.326 13.9305 24.3291 13.9273 24.3307 13.9241C24.3942 13.8441 24.4927 13.7993 24.6055 13.7993H25.6172H26.3652L25.3599 31.4121C22.9426 30.6105 19.3135 29.7993 14.4995 29.7993C9.68719 29.7993 6.05807 30.6105 3.64078 31.4121L2.63542 13.7993ZM27.5199 12.7017C27.2324 12.3945 26.8306 12.2233 26.4113 12.2105V6.59927C26.4113 6.15767 26.0571 5.79927 25.6172 5.79927H23.2348V3.39927C23.2348 2.95767 22.8807 2.59927 22.4407 2.59927H19.2642C18.8259 2.59927 18.4701 2.95767 18.4701 3.39927V4.19927H16.8819V1.79927C16.8819 1.35767 16.5277 0.999268 16.0878 0.999268H12.9113C12.473 0.999268 12.1172 1.35767 12.1172 1.79927V4.19927H10.529V3.39927C10.529 2.95767 10.1748 2.59927 9.73483 2.59927H6.55836C6.12001 2.59927 5.76425 2.95767 5.76425 3.39927V5.79927H3.38189C2.94354 5.79927 2.58778 6.15767 2.58778 6.59927V12.2105C2.17007 12.2233 1.76825 12.3945 1.48078 12.7017C1.18219 13.0217 1.02495 13.4553 1.05036 13.8921L2.46866 38.7593C2.50995 39.4777 2.86572 40.1321 3.44225 40.5545C3.8536 40.8585 4.34436 41.0153 4.84625 41.0153C5.04795 41.0153 5.25125 40.9897 5.45295 40.9369C5.73725 40.8633 6.05807 40.7705 6.41384 40.6681C8.16407 40.1625 10.8085 39.3993 14.4995 39.3993C18.1922 39.3993 20.8366 40.1625 22.5868 40.6681C22.9426 40.7705 23.2634 40.8633 23.5477 40.9369C24.2465 41.1193 24.9803 40.9801 25.5584 40.5545C26.135 40.1321 26.4907 39.4777 26.532 38.7577L27.9503 13.8921C27.9757 13.4553 27.8185 13.0217 27.5199 12.7017Z"/>
</mask>
<path fill-rule="evenodd" clip-rule="evenodd" d="M24.6245 39.2617C24.4292 39.4025 24.183 39.4489 23.9448 39.3897C23.6716 39.3177 23.3651 39.2281 23.0252 39.1305C21.1892 38.6009 18.4145 37.7993 14.4995 37.7993C10.5861 37.7993 7.81148 38.6009 5.97548 39.1305C5.6356 39.2281 5.32907 39.3177 5.05589 39.3897C4.81607 39.4521 4.56989 39.4025 4.37613 39.2617C4.26336 39.1785 4.07278 38.9929 4.05372 38.6649L3.73448 33.0729C6.01678 32.2681 9.59983 31.3993 14.4995 31.3993C19.4008 31.3993 22.9839 32.2681 25.2662 33.0729L24.947 38.6633C24.9279 38.9929 24.7373 39.1785 24.6245 39.2617ZM4.17601 7.39927H5.76425V12.7625C5.74995 12.7465 5.72772 12.7417 5.71184 12.7273C5.55142 12.5753 5.37036 12.4521 5.16866 12.3641C5.14007 12.3529 5.10989 12.3449 5.07972 12.3337C4.86372 12.2537 4.63501 12.1993 4.39519 12.1993H4.17601V7.39927ZM7.35248 4.19927H8.94072V4.99927V15.4921C8.38166 15.1641 7.8496 14.7897 7.35248 14.3705V6.59927V4.19927ZM12.1172 5.79927V16.7225C12.0791 16.7129 12.041 16.7049 12.0028 16.6953C11.52 16.5865 11.0483 16.4489 10.5957 16.2761C10.5734 16.2681 10.5512 16.2601 10.529 16.2521V5.79927H12.1172ZM13.7054 2.59927H15.2937V4.99927V16.9417C15.192 16.9481 15.0935 16.9593 14.9887 16.9641C14.6631 16.9801 14.3375 16.9801 14.012 16.9641C13.9071 16.9593 13.8087 16.9481 13.7054 16.9417V4.99927V2.59927ZM18.4701 5.79927V16.2521C18.4495 16.2601 18.4272 16.2681 18.405 16.2761C17.9524 16.4489 17.4807 16.5865 16.9978 16.6953C16.9597 16.7049 16.9216 16.7129 16.8819 16.7225V5.79927H18.4701ZM20.0584 4.19927H21.6466V6.59927V14.3705C21.1495 14.7897 20.619 15.1641 20.0584 15.4921V4.99927V4.19927ZM24.8231 7.39927V12.1993H24.6055C24.3657 12.1993 24.137 12.2537 23.921 12.3337C23.8908 12.3449 23.8606 12.3529 23.832 12.3641C23.6303 12.4521 23.4492 12.5753 23.2872 12.7273C23.2714 12.7417 23.2507 12.7465 23.2348 12.7625V7.39927H24.8231ZM2.63542 13.7993H3.38189H4.39519C4.50795 13.7993 4.60484 13.8441 4.67154 13.9257L4.67472 13.9289C4.75731 14.0313 4.88754 14.1833 5.04478 14.3561C5.18454 14.5129 5.34654 14.6777 5.52284 14.8537L5.57048 14.9017C6.93795 16.2633 9.35207 18.0377 12.878 18.4809C13.3417 18.5401 13.8865 18.5993 14.4995 18.5993C15.1142 18.5993 15.659 18.5401 16.1227 18.4809C19.6454 18.0377 22.058 16.2649 23.427 14.9049C23.4477 14.8857 23.4651 14.8681 23.4826 14.8489C23.6573 14.6745 23.8177 14.5113 23.9559 14.3561C24.1115 14.1833 24.2402 14.0345 24.3244 13.9321C24.326 13.9305 24.3291 13.9273 24.3307 13.9241C24.3942 13.8441 24.4927 13.7993 24.6055 13.7993H25.6172H26.3652L25.3599 31.4121C22.9426 30.6105 19.3135 29.7993 14.4995 29.7993C9.68719 29.7993 6.05807 30.6105 3.64078 31.4121L2.63542 13.7993ZM27.5199 12.7017C27.2324 12.3945 26.8306 12.2233 26.4113 12.2105V6.59927C26.4113 6.15767 26.0571 5.79927 25.6172 5.79927H23.2348V3.39927C23.2348 2.95767 22.8807 2.59927 22.4407 2.59927H19.2642C18.8259 2.59927 18.4701 2.95767 18.4701 3.39927V4.19927H16.8819V1.79927C16.8819 1.35767 16.5277 0.999268 16.0878 0.999268H12.9113C12.473 0.999268 12.1172 1.35767 12.1172 1.79927V4.19927H10.529V3.39927C10.529 2.95767 10.1748 2.59927 9.73483 2.59927H6.55836C6.12001 2.59927 5.76425 2.95767 5.76425 3.39927V5.79927H3.38189C2.94354 5.79927 2.58778 6.15767 2.58778 6.59927V12.2105C2.17007 12.2233 1.76825 12.3945 1.48078 12.7017C1.18219 13.0217 1.02495 13.4553 1.05036 13.8921L2.46866 38.7593C2.50995 39.4777 2.86572 40.1321 3.44225 40.5545C3.8536 40.8585 4.34436 41.0153 4.84625 41.0153C5.04795 41.0153 5.25125 40.9897 5.45295 40.9369C5.73725 40.8633 6.05807 40.7705 6.41384 40.6681C8.16407 40.1625 10.8085 39.3993 14.4995 39.3993C18.1922 39.3993 20.8366 40.1625 22.5868 40.6681C22.9426 40.7705 23.2634 40.8633 23.5477 40.9369C24.2465 41.1193 24.9803 40.9801 25.5584 40.5545C26.135 40.1321 26.4907 39.4777 26.532 38.7577L27.9503 13.8921C27.9757 13.4553 27.8185 13.0217 27.5199 12.7017Z" fill="#8B8985"/>
<path fill-rule="evenodd" clip-rule="evenodd" d="M24.6245 39.2617C24.4292 39.4025 24.183 39.4489 23.9448 39.3897C23.6716 39.3177 23.3651 39.2281 23.0252 39.1305C21.1892 38.6009 18.4145 37.7993 14.4995 37.7993C10.5861 37.7993 7.81148 38.6009 5.97548 39.1305C5.6356 39.2281 5.32907 39.3177 5.05589 39.3897C4.81607 39.4521 4.56989 39.4025 4.37613 39.2617C4.26336 39.1785 4.07278 38.9929 4.05372 38.6649L3.73448 33.0729C6.01678 32.2681 9.59983 31.3993 14.4995 31.3993C19.4008 31.3993 22.9839 32.2681 25.2662 33.0729L24.947 38.6633C24.9279 38.9929 24.7373 39.1785 24.6245 39.2617ZM4.17601 7.39927H5.76425V12.7625C5.74995 12.7465 5.72772 12.7417 5.71184 12.7273C5.55142 12.5753 5.37036 12.4521 5.16866 12.3641C5.14007 12.3529 5.10989 12.3449 5.07972 12.3337C4.86372 12.2537 4.63501 12.1993 4.39519 12.1993H4.17601V7.39927ZM7.35248 4.19927H8.94072V4.99927V15.4921C8.38166 15.1641 7.8496 14.7897 7.35248 14.3705V6.59927V4.19927ZM12.1172 5.79927V16.7225C12.0791 16.7129 12.041 16.7049 12.0028 16.6953C11.52 16.5865 11.0483 16.4489 10.5957 16.2761C10.5734 16.2681 10.5512 16.2601 10.529 16.2521V5.79927H12.1172ZM13.7054 2.59927H15.2937V4.99927V16.9417C15.192 16.9481 15.0935 16.9593 14.9887 16.9641C14.6631 16.9801 14.3375 16.9801 14.012 16.9641C13.9071 16.9593 13.8087 16.9481 13.7054 16.9417V4.99927V2.59927ZM18.4701 5.79927V16.2521C18.4495 16.2601 18.4272 16.2681 18.405 16.2761C17.9524 16.4489 17.4807 16.5865 16.9978 16.6953C16.9597 16.7049 16.9216 16.7129 16.8819 16.7225V5.79927H18.4701ZM20.0584 4.19927H21.6466V6.59927V14.3705C21.1495 14.7897 20.619 15.1641 20.0584 15.4921V4.99927V4.19927ZM24.8231 7.39927V12.1993H24.6055C24.3657 12.1993 24.137 12.2537 23.921 12.3337C23.8908 12.3449 23.8606 12.3529 23.832 12.3641C23.6303 12.4521 23.4492 12.5753 23.2872 12.7273C23.2714 12.7417 23.2507 12.7465 23.2348 12.7625V7.39927H24.8231ZM2.63542 13.7993H3.38189H4.39519C4.50795 13.7993 4.60484 13.8441 4.67154 13.9257L4.67472 13.9289C4.75731 14.0313 4.88754 14.1833 5.04478 14.3561C5.18454 14.5129 5.34654 14.6777 5.52284 14.8537L5.57048 14.9017C6.93795 16.2633 9.35207 18.0377 12.878 18.4809C13.3417 18.5401 13.8865 18.5993 14.4995 18.5993C15.1142 18.5993 15.659 18.5401 16.1227 18.4809C19.6454 18.0377 22.058 16.2649 23.427 14.9049C23.4477 14.8857 23.4651 14.8681 23.4826 14.8489C23.6573 14.6745 23.8177 14.5113 23.9559 14.3561C24.1115 14.1833 24.2402 14.0345 24.3244 13.9321C24.326 13.9305 24.3291 13.9273 24.3307 13.9241C24.3942 13.8441 24.4927 13.7993 24.6055 13.7993H25.6172H26.3652L25.3599 31.4121C22.9426 30.6105 19.3135 29.7993 14.4995 29.7993C9.68719 29.7993 6.05807 30.6105 3.64078 31.4121L2.63542 13.7993ZM27.5199 12.7017C27.2324 12.3945 26.8306 12.2233 26.4113 12.2105V6.59927C26.4113 6.15767 26.0571 5.79927 25.6172 5.79927H23.2348V3.39927C23.2348 2.95767 22.8807 2.59927 22.4407 2.59927H19.2642C18.8259 2.59927 18.4701 2.95767 18.4701 3.39927V4.19927H16.8819V1.79927C16.8819 1.35767 16.5277 0.999268 16.0878 0.999268H12.9113C12.473 0.999268 12.1172 1.35767 12.1172 1.79927V4.19927H10.529V3.39927C10.529 2.95767 10.1748 2.59927 9.73483 2.59927H6.55836C6.12001 2.59927 5.76425 2.95767 5.76425 3.39927V5.79927H3.38189C2.94354 5.79927 2.58778 6.15767 2.58778 6.59927V12.2105C2.17007 12.2233 1.76825 12.3945 1.48078 12.7017C1.18219 13.0217 1.02495 13.4553 1.05036 13.8921L2.46866 38.7593C2.50995 39.4777 2.86572 40.1321 3.44225 40.5545C3.8536 40.8585 4.34436 41.0153 4.84625 41.0153C5.04795 41.0153 5.25125 40.9897 5.45295 40.9369C5.73725 40.8633 6.05807 40.7705 6.41384 40.6681C8.16407 40.1625 10.8085 39.3993 14.4995 39.3993C18.1922 39.3993 20.8366 40.1625 22.5868 40.6681C22.9426 40.7705 23.2634 40.8633 23.5477 40.9369C24.2465 41.1193 24.9803 40.9801 25.5584 40.5545C26.135 40.1321 26.4907 39.4777 26.532 38.7577L27.9503 13.8921C27.9757 13.4553 27.8185 13.0217 27.5199 12.7017Z" stroke="#8B8985" mask="url(#path-1-outside-1)"/>
</svg>
