<svg width="41" height="42" viewBox="0 0 41 42" fill="none" xmlns="http://www.w3.org/2000/svg">
<path d="M19.6377 1.76146L19.6378 1.76136C20.9541 0.413047 23.097 0.412674 24.4105 1.76148C25.503 2.882 25.7342 4.44791 25.1692 5.7255C27.0867 7.13361 28.9464 8.74323 30.7035 10.5455C32.4587 12.3441 34.0264 14.2489 35.3966 16.213C36.6378 15.6353 38.1519 15.8536 39.1729 16.9024C40.5747 18.3403 40.584 20.5271 39.2679 21.8769L28.9532 32.4561C28.2966 33.1296 27.4312 33.4692 26.5668 33.4692C25.701 33.4692 24.8356 33.1297 24.1789 32.4561L24.1773 32.4545L24.1759 32.453L24.0838 32.3571C24.0836 32.3568 24.0833 32.3566 24.0831 32.3563C23.0613 31.3093 22.8516 29.7598 23.4194 28.4902C22.2624 27.6423 21.129 26.7186 20.0247 25.7206C15.2326 31.785 8.75899 39.1906 7.99168 39.9791L7.99151 39.9793C7.1647 40.8273 6.0762 41.2532 4.98891 41.2532C3.9015 41.2532 2.8146 40.8273 1.98787 39.9793C0.336396 38.2855 0.336242 35.5322 1.98787 33.8399M19.6377 1.76146L1.98787 33.8399M19.6377 1.76146L9.32144 12.3407L9.32143 12.3407C8.0098 13.6859 8.01011 15.8728 9.32454 17.2209L9.41658 17.3153C10.0735 17.9891 10.9389 18.3268 11.803 18.3268C12.2834 18.3268 12.7564 18.2117 13.1946 18.005M19.6377 1.76146L13.1946 18.005M1.98787 33.8399C2.75573 33.0523 9.98328 26.4046 15.8978 21.4888C14.9244 20.3552 14.0225 19.1915 13.1946 18.005M1.98787 33.8399L13.1946 18.005M35.7746 18.4711L35.822 18.4293C35.839 18.4144 35.8515 18.4 35.86 18.3893C35.8621 18.3867 35.864 18.3842 35.8658 18.3818C35.8687 18.378 35.8712 18.3745 35.8732 18.3717C36.1177 18.1265 36.4308 18.002 36.7536 18.002C37.1077 18.002 37.4874 18.1507 37.807 18.4785C38.3223 19.007 38.3223 19.8682 37.807 20.3967L27.4925 30.9756C26.9803 31.4996 26.1513 31.5005 25.6398 30.9759L25.5464 30.8801C25.0324 30.3515 25.0324 29.4901 25.5464 28.9615L35.7746 18.4711ZM17.8857 23.6736L17.8858 23.6737C18.0896 23.8827 18.296 24.0883 18.508 24.2967C13.7461 30.3309 7.27487 37.7341 6.53053 38.4991C5.67848 39.3698 4.299 39.3695 3.44879 38.4991C2.59497 37.6234 2.59497 36.1958 3.44879 35.3201C4.19194 34.5579 11.4025 27.9276 17.2858 23.0441C17.4834 23.2555 17.6832 23.4646 17.8837 23.6716L17.8842 23.672L17.8857 23.6736ZM29.2425 12.0256L29.2427 12.0258C30.9472 13.7724 32.4754 15.619 33.7962 17.5216L24.6964 26.8547C22.8468 25.5034 21.0498 23.9386 19.3468 22.1936C17.6407 20.4422 16.1125 18.5969 14.7932 16.6961L23.893 7.36291C25.7455 8.71564 27.5411 10.279 29.2425 12.0256ZM10.878 15.8339L10.878 15.8339L10.8761 15.832L10.7823 15.7375C10.7821 15.7372 10.7819 15.737 10.7817 15.7368C10.2686 15.2098 10.2688 14.3476 10.7823 13.8209L21.0986 3.24174L21.0986 3.24173C21.345 2.98898 21.6628 2.8596 21.9913 2.8596C22.3446 2.8596 22.723 3.00929 23.0432 3.33773C23.5585 3.86623 23.5585 4.72737 23.0432 5.25587L22.1431 6.17899L22.1431 6.17908L12.7535 15.7998L12.7534 15.7999C12.7383 15.8154 12.7274 15.8299 12.7202 15.8402C12.7189 15.8421 12.7176 15.8439 12.7165 15.8456C12.2037 16.3587 11.3829 16.3545 10.878 15.8339Z" fill="#D9D9D9" stroke="#D9D9D9" stroke-width="0.5"/>
</svg>
