<svg width="32" height="42" viewBox="0 0 32 42" fill="none" xmlns="http://www.w3.org/2000/svg">
<path d="M19.1581 26.85C19.7351 26.85 20.1976 26.3765 20.1976 25.8C20.1976 25.2235 19.7351 24.75 19.1581 24.75H16.0002C15.4232 24.75 14.9607 25.2235 14.9607 25.8C14.9607 26.3765 15.4232 26.85 16.0002 26.85H19.1581ZM22.316 21.55H16.0002C15.4232 21.55 14.9607 22.0235 14.9607 22.6C14.9607 23.1765 15.4232 23.65 16.0002 23.65H22.316C22.893 23.65 23.3555 23.1765 23.3555 22.6C23.3555 22.0235 22.893 21.55 22.316 21.55ZM19.6976 16.75H13.8818V10.85H19.6976V16.75ZM13.8818 31.15V18.85H20.737H26.0134V31.15H13.8818ZM12.8423 33.25H27.0528C27.6298 33.25 28.0923 32.7765 28.0923 32.2V17.8C28.0923 17.2235 27.6298 16.75 27.0528 16.75H21.7765V9.8C21.7765 9.22346 21.314 8.75 20.737 8.75H12.8423C12.2653 8.75 11.8028 9.22346 11.8028 9.8V17.8V32.2C11.8028 32.7765 12.2653 33.25 12.8423 33.25ZM6.52651 39.15C4.49184 39.15 2.82915 37.4714 2.82915 35.4C2.82915 33.3286 4.49184 31.65 6.52651 31.65C8.56119 31.65 10.2239 33.3286 10.2239 35.4C10.2239 37.4714 8.56119 39.15 6.52651 39.15ZM30.2107 35.95H12.2604C12.2838 35.7743 12.3028 35.5897 12.3028 35.4C12.3028 33.1312 11.0118 31.1765 9.14494 30.2089V6.6C9.14494 3.37706 6.55717 0.75 3.36862 0.75C2.79165 0.75 2.32915 1.22346 2.32915 1.8C2.32915 2.37654 2.79165 2.85 3.36862 2.85C5.40329 2.85 7.06599 4.5286 7.06599 6.6V29.5917C6.89332 29.5683 6.71275 29.55 6.52651 29.55C3.33796 29.55 0.750198 32.1771 0.750198 35.4C0.750198 38.6229 3.33796 41.25 6.52651 41.25C8.77011 41.25 10.6993 39.9392 11.6546 38.05H30.2107C30.7877 38.05 31.2502 37.5765 31.2502 37C31.2502 36.4235 30.7877 35.95 30.2107 35.95Z" fill="#8B8985" stroke="#8B8985" stroke-width="0.5"/>
</svg>
