<svg width="160" height="160" viewBox="0 0 160 160" fill="none" xmlns="http://www.w3.org/2000/svg">
<g opacity="0.05">
<path d="M136 110V40C136 38.4 135.4 36.8 134.2 35.8C133 34.8 131.6 34 130 34H30C28.4 34 26.8 34.6 25.8 35.8C24.6 36.8 24 38.4 24 40V110H16V116C16 118.6 17 121.2 19 123C20.8 125 23.4 126 26 126H134C136.6 126 139.2 125 141 123C142.8 121.2 144 118.6 144 116V110H136ZM28 40C28 39.4 28.2 39 28.6 38.6C29 38.2 29.4 38 30 38H130C130.6 38 131 38.2 131.4 38.6C131.8 39 132 39.4 132 40V110H95.2L91.2 114H68.8L64.8 110H28V40ZM140 116C140 117.6 139.4 119.2 138.2 120.2C137.2 121.4 135.6 122 134 122H26C24.4 122 22.8 121.4 21.8 120.2C20.6 119.2 20 117.6 20 116V114H63.2L67.2 118H92.8L96.8 114H140V116Z" fill="black"/>
<path fill-rule="evenodd" clip-rule="evenodd" d="M82 46H78V42H82V46Z" fill="black"/>
</g>
</svg>
