<svg width="41" height="22" viewBox="0 0 41 22" fill="none" xmlns="http://www.w3.org/2000/svg">
<path d="M7.82689 6.7094L7.82701 6.70926C9.62143 4.72577 11.3926 2.78846 14.2607 2.78846C16.8286 2.78846 18.1114 3.62949 18.7616 4.46869C19.419 5.31727 19.4677 6.21225 19.4707 6.38682C19.4719 6.95142 19.9342 7.40385 20.5007 7.40385C21.066 7.40385 21.5307 6.95057 21.5307 6.38462C21.5307 6.32953 21.5429 5.4305 22.1877 4.55044C22.8218 3.68491 24.1045 2.78846 26.7407 2.78846C29.6072 2.78846 31.3784 4.72573 33.1728 6.70926L33.173 6.7094L33.1906 6.72891C33.901 7.51298 34.6387 8.32719 35.4567 8.99292C34.8441 9.15402 34.2239 9.33943 33.58 9.53197L33.5206 9.54971L33.5205 9.54973L33.5086 9.55331C30.5755 10.4312 26.9403 11.5192 20.5007 11.5192C14.0595 11.5192 10.4244 10.4312 7.49126 9.55331L7.47931 9.54973L7.47923 9.54971L7.41987 9.53196C6.77592 9.33943 6.15579 9.15401 5.54318 8.99292C6.36116 8.3272 7.09882 7.513 7.80918 6.72895L7.82689 6.7094ZM9.45451 15.1726L9.45457 15.1726L9.47151 15.1907C12.1018 17.9931 15.1585 21.25 20.5007 21.25C25.8413 21.25 28.8981 17.9931 31.5283 15.1907L31.5453 15.1726L31.5453 15.1726C33.9611 12.5966 35.9639 10.4808 39.2207 10.4808C39.7861 10.4808 40.2507 10.0275 40.2507 9.46154C40.2507 8.89559 39.7861 8.44231 39.2207 8.44231C38.3826 8.44231 37.6461 8.10589 36.9186 7.54525C36.186 6.98065 35.4829 6.20523 34.7073 5.3491C34.7073 5.34909 34.7073 5.34909 34.7073 5.34908L34.6837 5.32303C32.7803 3.22134 30.5422 0.75 26.7407 0.75C23.2902 0.75 21.46 2.04546 20.5005 3.41524C19.5399 2.04559 17.71 0.75 14.2607 0.75C10.4577 0.75 8.21956 3.22133 6.31615 5.32306L6.29258 5.34908C5.517 6.20522 4.81383 6.98066 4.08137 7.54527C3.35403 8.10593 2.61797 8.44231 1.7807 8.44231C1.21347 8.44231 0.750702 8.89591 0.750702 9.46154C0.750702 10.0272 1.21347 10.4808 1.7807 10.4808C5.03593 10.4808 7.03869 12.5966 9.45451 15.1726ZM30.0356 13.7859C27.4882 16.5003 24.9299 19.2115 20.5007 19.2115C16.0699 19.2115 13.5117 16.5003 10.9643 13.7859C10.4763 13.2656 9.98011 12.7428 9.46762 12.2367C12.1301 12.9322 15.5068 13.5577 20.5007 13.5577C25.4932 13.5577 28.8698 12.9322 31.5322 12.2367C31.0197 12.7428 30.5235 13.2656 30.0356 13.7859Z" fill="#D9D9D9" stroke="#D9D9D9" stroke-width="0.5"/>
</svg>
