<svg width="39" height="41" viewBox="0 0 39 41" fill="none" xmlns="http://www.w3.org/2000/svg">
<path d="M22.8291 20.9758L22.821 20.993L22.8156 21.0112C22.8118 21.0242 22.8094 21.0356 22.8078 21.0442C21.9707 22.8681 20.0858 24.15 17.8915 24.15C14.9175 24.15 12.5111 21.8055 12.5111 18.94C12.5111 16.0745 14.9175 13.73 17.8915 13.73C20.8655 13.73 23.2719 16.0745 23.2719 18.94C23.2719 19.638 23.1279 20.3041 22.8688 20.912C22.8576 20.9261 22.842 20.9482 22.8291 20.9758ZM5.82628 21.53C6.40974 21.53 6.89466 21.8924 7.08518 22.3949C7.0852 22.395 7.08522 22.3951 7.08524 22.3953V22.3985L7.08659 22.4026C7.0875 22.4071 7.0886 22.4121 7.08994 22.4172L7.10749 22.4853L7.11688 22.4944C7.15802 22.6229 7.18498 22.7306 7.18498 22.84C7.18498 23.5557 6.58207 24.15 5.82628 24.15C5.0705 24.15 4.46759 23.5557 4.46759 22.84C4.46759 22.1243 5.0705 21.53 5.82628 21.53ZM34.7828 27.27C34.027 27.27 33.4241 26.6757 33.4241 25.96C33.4241 25.8005 33.4558 25.6476 33.512 25.505C33.5213 25.4929 33.5309 25.4784 33.5397 25.4612C33.5515 25.4385 33.5585 25.417 33.5627 25.4002C33.7808 24.9598 34.2431 24.65 34.7828 24.65C35.5386 24.65 36.1415 25.2443 36.1415 25.96C36.1415 26.6757 35.5386 27.27 34.7828 27.27ZM2.85889 5.68C2.85889 4.10458 4.18267 2.81 5.82628 2.81C7.4699 2.81 8.79368 4.10458 8.79368 5.68C8.79368 7.25542 7.4699 8.55 5.82628 8.55C4.18267 8.55 2.85889 7.25542 2.85889 5.68ZM29.1524 5.93C30.352 5.93 31.3154 6.87514 31.3154 8.02C31.3154 9.16486 30.352 10.11 29.1524 10.11C28.5724 10.11 28.0495 9.88812 27.6602 9.52822C27.6501 9.51434 27.6356 9.49707 27.6159 9.48012C27.6058 9.47124 27.5962 9.46406 27.5885 9.45869C27.2174 9.0809 26.9893 8.57471 26.9893 8.02C26.9893 6.87514 27.9527 5.93 29.1524 5.93ZM23.2719 36.1C23.2719 37.2449 22.3085 38.19 21.1089 38.19C19.9093 38.19 18.9458 37.2449 18.9458 36.1C18.9458 34.9551 19.9093 34.01 21.1089 34.01C22.3085 34.01 23.2719 34.9551 23.2719 36.1ZM34.7828 22.59C33.7407 22.59 32.8149 23.0471 32.18 23.7545L25.0953 20.8096C25.2646 20.2185 25.3806 19.5969 25.3806 18.94C25.3806 17.3028 24.7985 15.814 23.8592 14.6042L26.9738 11.5853C27.6118 11.9555 28.3558 12.17 29.1524 12.17C31.4999 12.17 33.4241 10.3166 33.4241 8.02C33.4241 5.72344 31.4999 3.87 29.1524 3.87C26.8049 3.87 24.8806 5.72344 24.8806 8.02C24.8806 8.7921 25.1004 9.51263 25.4799 10.1316L22.3642 13.1516C21.1155 12.2362 19.5794 11.67 17.8915 11.67C16.3762 11.67 14.9693 12.1179 13.7899 12.8714L9.89022 8.59579C10.5146 7.78041 10.9024 6.77931 10.9024 5.68C10.9024 2.9545 8.61784 0.75 5.82628 0.75C3.03473 0.75 0.750198 2.9545 0.750198 5.68C0.750198 8.4055 3.03473 10.61 5.82628 10.61C6.734 10.61 7.57851 10.3672 8.31248 9.96114L12.2142 14.24C11.0977 15.5059 10.4024 17.1386 10.4024 18.94C10.4024 19.3821 10.447 19.8138 10.5256 20.2329L8.61814 20.8529C7.98672 20.0149 6.9719 19.47 5.82628 19.47C3.92112 19.47 2.35889 20.9741 2.35889 22.84C2.35889 24.7059 3.92112 26.21 5.82628 26.21C7.73145 26.21 9.29368 24.7059 9.29368 22.84C9.29368 22.8272 9.29332 22.8147 9.29271 22.8025L11.2098 22.1803C12.4403 24.5638 14.9645 26.21 17.8915 26.21C17.994 26.21 18.09 26.1987 18.1737 26.1878C18.1776 26.1873 18.1815 26.1868 18.1854 26.1863L19.3285 32.3344C17.8647 32.989 16.8372 34.4233 16.8372 36.1C16.8372 38.3966 18.7614 40.25 21.1089 40.25C23.4564 40.25 25.3806 38.3966 25.3806 36.1C25.3806 33.9016 23.6152 32.1163 21.4052 31.9684L20.258 25.8023C21.9408 25.2539 23.3491 24.1508 24.2596 22.7023L31.3386 25.6431C31.3252 25.7436 31.3154 25.8496 31.3154 25.96C31.3154 27.8259 32.8776 29.33 34.7828 29.33C36.688 29.33 38.2502 27.8259 38.2502 25.96C38.2502 24.0941 36.688 22.59 34.7828 22.59Z" fill="#8B8985" stroke="#8B8985" stroke-width="0.5"/>
</svg>
