<svg width="20" height="42" viewBox="0 0 20 42" fill="none" xmlns="http://www.w3.org/2000/svg">
<path d="M4.27047 4.54354C3.87819 3.68141 3.95868 2.66195 4.47959 1.87768L4.47974 1.87745C4.95454 1.16432 5.70697 0.75 6.54348 0.75H13.4555C14.292 0.75 15.0444 1.16432 15.5192 1.87745L15.5194 1.87768C16.0402 2.66184 16.1207 3.68112 15.7287 4.54317L4.27047 4.54354ZM4.27047 4.54354L5.72012 7.74317L5.72031 7.74359C5.93528 8.21574 6.2818 8.58453 6.68827 8.8421L0.781813 31.9445L0.781668 31.9444L0.779818 31.9529C0.773059 31.9837 0.772133 32.0108 0.772802 32.0312C0.773136 32.0413 0.773925 32.0507 0.774701 32.0581C0.758364 32.1696 0.761718 32.2771 0.782181 32.3863C0.782361 32.3876 0.782556 32.3891 0.782768 32.3907C0.786087 32.416 0.793487 32.4725 0.811605 32.5261C0.859142 32.6675 0.933412 32.8156 1.06206 32.9436L1.06361 32.9452L9.24542 40.9452L9.24634 40.946C9.45534 41.1483 9.72798 41.25 9.99948 41.25C10.271 41.25 10.5436 41.1483 10.7526 40.946L10.7535 40.9452L18.9354 32.9452C19.2014 32.685 19.3101 32.3037 19.217 31.9438L13.3107 8.8421C13.7172 8.58453 14.0637 8.21574 14.2786 7.74359L14.2788 7.74317L15.7285 4.54354H4.27047ZM6.22138 3.68883L6.22134 3.68874C6.10332 3.42851 6.16947 3.17578 6.26883 3.02657L6.26975 3.02518C6.32567 2.93998 6.41898 2.85 6.54348 2.85H13.4555C13.58 2.85 13.6733 2.93998 13.7292 3.02519L13.7301 3.02657C13.8295 3.17578 13.8956 3.42851 13.7776 3.68874L13.7776 3.68883L12.328 6.88828C12.328 6.88834 12.3279 6.88841 12.3279 6.88848C12.2424 7.07585 12.1067 7.15 12.0057 7.15H8.69289H8.69202L8.00814 7.14521V7.1452H8.00639C7.9936 7.1452 7.98219 7.14611 7.97264 7.1473C7.87352 7.13728 7.75095 7.06093 7.67079 6.88792C7.67067 6.88767 7.67055 6.88742 7.67044 6.88717L6.22138 3.68883ZM9.99948 38.7192L7.42307 36.2L15.9665 27.8464L16.9968 31.8773L9.99948 38.7192ZM12.0877 12.6773L6.51914 18.1221L8.78796 9.25H11.211L12.0877 12.6773ZM5.50834 22.0722L12.6938 15.0464L13.7241 19.0773L3.79122 28.7895L5.50834 22.0722ZM3.33216 32.2L14.3302 21.4464L15.3604 25.4773L5.90857 34.7192L3.33216 32.2Z" fill="#8B8985" stroke="#8B8985" stroke-width="0.5"/>
</svg>
