<svg width="41" height="41" viewBox="0 0 41 41" fill="none" xmlns="http://www.w3.org/2000/svg">
<path d="M15.291 15.2376L15.2894 15.2378C15.0577 15.2721 14.8238 15.292 14.5882 15.292C13.5474 15.292 12.5273 14.9325 11.608 14.2491L15.291 15.2376ZM15.291 15.2376C16.8596 14.9948 18.1482 13.9478 18.9698 12.4862C19.7914 11.0246 20.1554 9.1357 19.8777 7.16666C19.5628 4.92569 18.4897 2.96034 16.9135 1.79191C15.7861 0.952953 14.5123 0.606447 13.2305 0.803265L13.2302 0.803311M15.291 15.2376L13.2302 0.803311M13.2302 0.803311C11.6616 1.0461 10.3731 2.09313 9.55147 3.55471M13.2302 0.803311L9.55147 3.55471M3.89202 13.3736C6.43165 12.6743 9.25823 14.6411 10.25 17.6308C10.8093 19.315 10.72 21.0693 9.98358 22.4452C9.43109 23.4776 8.54006 24.2132 7.46924 24.5073C7.46919 24.5073 7.46913 24.5073 7.46907 24.5074L7.40287 24.2663C7.07995 24.3552 6.75079 24.3973 6.41851 24.3973L3.89202 13.3736ZM3.89202 13.3736C2.82121 13.6676 1.93018 14.4033 1.37769 15.4357C0.641287 16.8116 0.55201 18.5659 1.11125 20.2501L3.89202 13.3736ZM9.55147 3.55471C8.72982 5.01633 8.36583 6.9052 8.64355 8.87424M9.55147 3.55471L8.64355 8.87424M8.64355 8.87424C8.95843 11.1152 10.0315 13.0805 11.6077 14.2489L8.64355 8.87424ZM34.0766 22.5198L34.0763 22.5198C33.4225 22.3406 33.042 21.8621 32.8346 21.4732L32.8343 21.4727C32.3826 20.6308 32.3232 19.4363 32.7062 18.2781C33.2964 16.4985 34.7694 15.292 36.0523 15.292C36.2247 15.292 36.3976 15.3155 36.5653 15.3612C37.2189 15.5404 37.5993 16.0189 37.8067 16.4077L37.807 16.4082C38.2587 17.2501 38.3181 18.4431 37.9349 19.603C37.6025 20.6053 36.9831 21.4392 36.2683 21.9686C35.5512 22.4997 34.7629 22.7087 34.0766 22.5198ZM37.1091 13.3735L37.109 13.3735C34.565 12.676 31.7415 14.641 30.7512 17.631C30.192 19.3151 30.2813 21.0694 31.0177 22.4452C31.5702 23.4776 32.4613 24.2133 33.5322 24.5074C33.8777 24.6025 34.2292 24.6473 34.5828 24.6473C36.8122 24.6473 39.0317 22.8395 39.8901 20.2499C40.4493 18.5658 40.36 16.8115 39.6236 15.4357C39.0711 14.4033 38.18 13.6676 37.1091 13.3735ZM8.16695 21.4727L8.16665 21.4732C7.95927 21.8621 7.57875 22.3406 6.92496 22.5198C6.23984 22.7049 5.45137 22.4953 4.73393 21.9649C4.01869 21.4362 3.39859 20.6041 3.06629 19.6029C2.6832 18.443 2.74256 17.2501 3.19432 16.4082L3.19462 16.4077C3.402 16.0188 3.78252 15.5403 4.43631 15.3611L4.43687 15.361C5.11902 15.1723 5.90676 15.3806 6.62494 15.9119C7.3406 16.4412 7.96194 17.2752 8.29503 18.2782C8.67804 19.4363 8.61871 20.6308 8.16695 21.4727ZM27.4533 2.84011L27.4545 2.8403C28.4116 2.9877 29.227 3.67714 29.7582 4.72005C30.2888 5.76182 30.5224 7.1355 30.3182 8.58939C30.0789 10.2872 29.2629 11.7804 28.1657 12.5964C27.4721 13.1111 26.7335 13.3118 26.0276 13.2007L26.0268 13.2006C25.0697 13.0532 24.2543 12.3638 23.7231 11.3208C23.1924 10.2791 22.9588 8.9054 23.1631 7.45151C23.4024 5.75362 24.2185 4.26031 25.3158 3.44434C25.8877 3.01905 26.4886 2.81045 27.0776 2.81045C27.2033 2.81045 27.329 2.82034 27.4533 2.84011ZM25.7102 15.2376L25.7119 15.2378C25.9436 15.2721 26.1775 15.292 26.413 15.292C27.454 15.292 28.4741 14.9324 29.3936 14.2489C30.9697 13.0805 32.0428 11.1152 32.3577 8.87424C32.6354 6.9052 32.2715 5.01633 31.4498 3.55471C30.6282 2.09313 29.3396 1.0461 27.771 0.803311V0.803306L27.7695 0.803084C26.4907 0.613075 25.2157 0.954085 24.0878 1.79192C22.5116 2.96035 21.4384 4.92569 21.1235 7.16666C20.8458 9.1357 21.2098 11.0246 22.0315 12.4862C22.8531 13.9478 24.1416 14.9948 25.7102 15.2376ZM13.5468 2.8403L13.548 2.8401C13.6722 2.82034 13.7979 2.81045 13.9237 2.81045C14.5123 2.81045 15.1132 3.02034 15.6856 3.44439C16.7828 4.26037 17.5989 5.75366 17.8382 7.45151C18.0424 8.9054 17.8088 10.2791 17.2782 11.3208C16.747 12.3638 15.9316 13.0532 14.9745 13.2006L14.9736 13.2007C14.2696 13.3118 13.5294 13.1097 12.8354 12.5963C11.7383 11.7802 10.9224 10.2871 10.6831 8.58939C10.4788 7.1355 10.7124 5.76182 11.2431 4.72005C11.7743 3.67714 12.5897 2.9877 13.5468 2.8403ZM26.7406 38.1904C26.0734 38.1904 25.5924 38.1123 25.1917 37.9926C24.7884 37.8722 24.458 37.7076 24.0819 37.5195C23.2601 37.1086 22.3016 36.6304 20.5006 36.6304C18.6996 36.6304 17.7412 37.1086 16.9194 37.5195C16.5433 37.7076 16.2129 37.8722 15.8095 37.9926C15.4088 38.1123 14.9278 38.1904 14.2606 38.1904C12.9434 38.1904 12.0469 37.8961 11.4759 37.3251C10.905 36.7542 10.6106 35.8577 10.6106 34.5404C10.6106 32.3523 11.7438 28.2982 13.5767 24.7836C14.4913 23.03 15.5714 21.4278 16.7562 20.2675C17.9432 19.105 19.2093 18.4104 20.5006 18.4104C21.792 18.4104 23.0581 19.105 24.2451 20.2675C25.4298 21.4278 26.51 23.03 27.4246 24.7836C29.2575 28.2982 30.3906 32.3523 30.3906 34.5404C30.3906 35.8577 30.0963 36.7542 29.5253 37.3251C28.9543 37.8961 28.0579 38.1904 26.7406 38.1904ZM20.5006 16.3504C18.6415 16.3504 16.9645 17.2232 15.5057 18.5715C14.0475 19.9193 12.7912 21.7563 11.7648 23.7256C9.71575 27.6575 8.55063 32.1825 8.55063 34.5404C8.55063 36.3687 9.03412 37.8068 10.0142 38.7869C10.9943 39.767 12.4324 40.2504 14.2606 40.2504C16.0616 40.2504 17.0201 39.7723 17.8419 39.3614C18.218 39.1733 18.5484 39.0087 18.9517 38.8883C19.3524 38.7686 19.8334 38.6904 20.5006 38.6904C21.1679 38.6904 21.6488 38.7686 22.0496 38.8883C22.4529 39.0087 22.7833 39.1733 23.1594 39.3614C23.9812 39.7723 24.9396 40.2504 26.7406 40.2504C28.5689 40.2504 30.007 39.767 30.9871 38.7869C31.9671 37.8068 32.4506 36.3687 32.4506 34.5404C32.4506 32.1825 31.2855 27.6575 29.2364 23.7256C28.2101 21.7563 26.9538 19.9193 25.4956 18.5715C24.0368 17.2232 22.3597 16.3504 20.5006 16.3504Z" fill="#8B8985" stroke="#8B8985" stroke-width="0.5"/>
</svg>
