<svg width="42" height="35" viewBox="0 0 42 35" fill="none" xmlns="http://www.w3.org/2000/svg">
<path d="M28.4355 9.10009C28.2955 9.54777 27.8779 9.83 27.4322 9.83C27.3306 9.83 27.227 9.81577 27.1228 9.7826C24.1582 8.88614 21.0417 8.88618 18.0772 9.78273C17.5238 9.95675 16.9358 9.64843 16.7648 9.10004M28.4355 9.10009L27.6674 8.04314C24.349 7.03743 20.8514 7.03743 17.533 8.04314L17.4609 7.80377C17.4607 7.80381 17.4606 7.80385 17.4605 7.80389C16.9082 7.97056 16.5927 8.55108 16.7648 9.10004M28.4355 9.10009C28.6077 8.55112 28.2923 7.97056 27.7399 7.80389L28.4355 9.10009ZM16.7648 9.10004C16.7648 9.09988 16.7647 9.09973 16.7647 9.09958L17.0033 9.02532L16.7648 9.10009C16.7648 9.10007 16.7648 9.10005 16.7648 9.10004ZM16.426 5.34972L16.426 5.34974L16.4283 5.34898C18.413 4.71425 20.4897 4.39286 22.6002 4.39286C31.7826 4.39286 39.1502 10.3232 39.1502 17.5C39.1502 21.3694 37.0005 25.0371 33.214 27.55L33.2135 27.5503C32.9265 27.7416 32.7502 28.0624 32.7502 28.4089V31.6429C32.7502 31.933 32.5077 32.1786 32.2002 32.1786H29.0002C28.6927 32.1786 28.4502 31.933 28.4502 31.6429V31.096C28.4502 30.7809 28.3049 30.4801 28.0518 30.2846C27.8634 30.1355 27.6326 30.0603 27.4002 30.0603C27.3228 30.0603 27.2427 30.0682 27.1627 30.0872C23.582 30.9037 19.9156 30.7481 16.5187 29.6759L16.5151 29.6748C16.2014 29.5809 15.8562 29.6335 15.5845 29.8244L15.5827 29.8257C15.3113 30.0199 15.1502 30.3311 15.1502 30.6639V31.6429C15.1502 31.933 14.9077 32.1786 14.6002 32.1786H11.4002C11.0927 32.1786 10.8502 31.933 10.8502 31.6429V27.1863C10.8502 26.8855 10.7164 26.6003 10.4886 26.4032L10.4873 26.4021C8.91797 25.0633 7.74207 23.5154 6.98582 21.8024C6.81842 21.4201 6.43742 21.1786 6.0226 21.1786H3.4002C3.09273 21.1786 2.8502 20.933 2.8502 20.6429V15.9286C2.8502 15.6384 3.09273 15.3929 3.4002 15.3929H5.4514C5.91993 15.3929 6.33581 15.0876 6.46316 14.6358C7.18838 12.0722 8.86831 9.74987 11.336 7.92516L11.3364 7.92487C11.6892 7.66294 11.8406 7.21054 11.7092 6.79L11.7091 6.7896C11.2333 5.2761 10.6134 3.93866 10.0938 2.95315C12.0837 3.23896 13.8838 3.98602 15.4652 5.1844L15.4653 5.18445C15.7408 5.39309 16.0968 5.45138 16.426 5.34972ZM13.0002 13.8214C13.3077 13.8214 13.5502 14.067 13.5502 14.3571C13.5502 14.6473 13.3077 14.8929 13.0002 14.8929C12.6927 14.8929 12.4502 14.6473 12.4502 14.3571C12.4502 14.067 12.6927 13.8214 13.0002 13.8214ZM13.0002 16.9643C14.4572 16.9643 15.6502 15.799 15.6502 14.3571C15.6502 12.9153 14.4572 11.75 13.0002 11.75C11.5432 11.75 10.3502 12.9153 10.3502 14.3571C10.3502 15.799 11.5432 16.9643 13.0002 16.9643ZM41.2502 17.5C41.2502 14.4507 40.1383 11.6141 38.2388 9.23954C40.1797 7.75001 41.2502 5.69896 41.2502 3.35714C41.2502 2.78113 40.7756 2.32143 40.2002 2.32143C39.6248 2.32143 39.1502 2.78113 39.1502 3.35714C39.1502 5.4591 38.0168 6.83248 36.8316 7.69983C33.4033 4.40771 28.2916 2.32143 22.6002 2.32143C20.4526 2.32143 18.3356 2.62277 16.3013 3.21973C13.9525 1.57823 11.2283 0.75 8.2002 0.75C7.81617 0.75 7.45886 0.958663 7.27656 1.29544C7.0935 1.63069 7.10961 2.04016 7.32558 2.359C7.37946 2.44017 8.60421 4.28853 9.47658 6.72971C7.19831 8.56657 5.55579 10.8202 4.68071 13.3214H3.4002C1.94319 13.3214 0.750198 14.4867 0.750198 15.9286V20.6429C0.750198 22.0847 1.94319 23.25 3.4002 23.25H5.35222C6.16727 24.873 7.30837 26.3496 8.7502 27.6514V31.6429C8.7502 33.0847 9.94319 34.25 11.4002 34.25H14.6002C15.9252 34.25 17.0322 33.2862 17.2224 32.0264C20.2036 32.7629 23.3421 32.8849 26.4475 32.3442C26.7606 33.4445 27.7886 34.25 29.0002 34.25H32.2002C33.6572 34.25 34.8502 33.0847 34.8502 31.6429V28.9504C38.9141 26.0728 41.2502 21.9302 41.2502 17.5Z" fill="#D9D9D9" stroke="#D9D9D9" stroke-width="0.5"/>
</svg>
