<svg width="35" height="42" viewBox="0 0 35 42" fill="none" xmlns="http://www.w3.org/2000/svg">
<path d="M17.5003 22.6163C16.9717 22.6163 16.4503 22.2867 16.0494 21.6971C15.6505 21.1105 15.3931 20.2937 15.3931 19.3991C15.3931 18.5053 15.6505 17.6889 16.0493 17.1025C16.4502 16.5131 16.9716 16.1835 17.5003 16.1835C18.0289 16.1835 18.5503 16.5131 18.9512 17.1025C19.3501 17.6889 19.6074 18.5053 19.6074 19.3991C19.6074 20.2937 19.3501 21.1105 18.9512 21.6971C18.5503 22.2867 18.0289 22.6163 17.5003 22.6163ZM17.5003 14.0835C15.1414 14.0835 13.3217 16.5302 13.3217 19.3991C13.3217 22.2695 15.1414 24.7163 17.5003 24.7163C19.8592 24.7163 21.6789 22.2695 21.6789 19.3991C21.6789 16.5302 19.8591 14.0835 17.5003 14.0835Z" fill="#8B8985" stroke="#8B8985" stroke-width="0.5"/>
<path d="M10.1692 21.2473C10.1751 21.2192 10.1757 21.1952 10.1752 21.1787C10.1752 21.1775 10.1752 21.1763 10.1751 21.1752C11.1345 16.5047 12.6105 11.8934 14.0497 8.45074C14.7711 6.72502 15.4802 5.30054 16.1064 4.3115C16.4201 3.81607 16.7073 3.43898 16.959 3.18881C17.222 2.9273 17.4014 2.84951 17.5003 2.84951C17.5989 2.84951 17.7782 2.92722 18.0411 3.18879C18.2927 3.43899 18.5799 3.81614 18.8935 4.31169C19.5197 5.30096 20.2288 6.72589 20.9503 8.4525C22.3895 11.8964 23.8656 16.5105 24.8251 21.1875C24.8251 21.1889 24.8251 21.1903 24.8251 21.1917C24.8252 21.2081 24.8269 21.229 24.8325 21.2525C25.3124 23.5966 25.6309 25.8272 25.7855 27.8346C25.7947 27.9549 25.8713 29.2698 25.8806 29.7721L25.8806 29.7725C25.882 29.8426 25.8837 29.9118 25.8853 29.9803C25.8893 30.1459 25.8932 30.3074 25.8932 30.468C25.8917 31.7419 24.9221 32.7495 23.764 32.7495H11.2366C10.0808 32.7495 9.10889 31.7443 9.10745 30.4312C9.10745 30.266 9.11142 30.0972 9.11545 29.9258C9.11645 29.8835 9.11744 29.8412 9.11839 29.7986L9.1184 29.7982C9.12381 29.5328 9.14366 29.0878 9.16293 28.6991C9.17253 28.5053 9.18194 28.3265 9.18923 28.1926L9.19834 28.0292L9.20123 27.9802L9.20215 27.9656C9.20227 27.9637 9.20236 27.9624 9.20242 27.9616L9.20252 27.9602L9.20262 27.9588C9.35413 25.9184 9.67924 23.6398 10.1692 21.2473ZM10.1692 21.2473C10.169 21.2481 10.1689 21.2488 10.1687 21.2496L9.92445 21.1963M10.1692 21.2473C10.1692 21.247 10.1693 21.2468 10.1694 21.2465L9.92445 21.1963M9.92445 21.1963C9.43259 23.5979 9.10573 25.8875 8.9533 27.9403L25.0762 21.1963C25.0744 21.191 25.0751 21.1856 25.0758 21.1803C25.0763 21.176 25.0769 21.1718 25.0762 21.1675C23.1512 11.7611 19.1393 2.59951 17.5003 2.59951C15.8597 2.59951 11.8494 11.7611 9.92445 21.1531C9.92288 21.1603 9.92366 21.1675 9.92445 21.1747C9.92523 21.1819 9.92602 21.1891 9.92445 21.1963ZM10.1687 21.2064L10.1694 21.2033L10.1687 21.2064ZM23.764 34.8495C25.5914 34.8495 27.1266 33.6239 27.7045 31.92C28.948 32.9841 30.0601 34.3154 30.8845 35.4204C31.3276 36.0143 31.6856 36.5401 31.9341 36.9198C32.0583 37.1095 32.1551 37.2626 32.2213 37.3693C32.2545 37.4226 32.2799 37.4642 32.2974 37.493C32.3114 37.5161 32.3192 37.5294 32.3219 37.5339C32.3228 37.5353 32.3231 37.5359 32.3229 37.5356L32.3229 37.5356L32.3252 37.5394C32.5152 37.8612 32.8569 38.0495 33.2146 38.0495C33.3027 38.0495 33.3973 38.0393 33.4945 38.0109C33.9435 37.8833 34.2503 37.4682 34.2503 36.9995C34.2503 34.8211 33.903 30.9393 32.7815 27.44C31.6859 24.0215 29.8149 20.8591 26.7001 20.1413C25.7097 15.4641 24.2328 10.6761 22.6221 7.03849C21.8082 5.20039 20.9554 3.64492 20.1071 2.54469C19.683 1.99457 19.2538 1.55005 18.8239 1.24127C18.3944 0.932703 17.9496 0.749512 17.5003 0.749512C17.0513 0.749512 16.6067 0.932497 16.1774 1.24078C15.7477 1.54928 15.3188 1.99341 14.8949 2.5431C14.0471 3.64246 13.1947 5.19689 12.3812 7.0343C10.7713 10.6706 9.29479 15.4586 8.30367 20.1412C5.1873 20.8575 3.31553 24.0199 2.21954 27.4388C1.09765 30.9385 0.750305 34.8211 0.750305 36.9995C0.750305 37.4683 1.0572 37.8833 1.50616 38.0109C1.60311 38.0393 1.6961 38.0495 1.78602 38.0495C2.14451 38.0495 2.48366 37.8607 2.67482 37.5405L2.67488 37.5405L2.67767 37.5356C2.6775 37.5359 2.67782 37.5353 2.67867 37.5339C2.68133 37.5294 2.68918 37.5162 2.7032 37.4931C2.72061 37.4644 2.74605 37.4228 2.77913 37.3696C2.84529 37.2631 2.94192 37.1102 3.06597 36.9207C3.31412 36.5417 3.67163 36.0166 4.11412 35.4234C4.93732 34.3199 6.0479 32.9899 7.28978 31.9253C7.86425 33.6175 9.40496 34.8495 11.2366 34.8495H13.4428C13.7021 36.4147 14.4772 37.8761 15.2051 38.9669C15.9686 40.111 16.6947 40.8688 16.7657 40.9411C16.9687 41.1479 17.2351 41.2495 17.5003 41.2495C17.7651 41.2495 18.0319 41.1481 18.2338 40.9406C18.3072 40.8658 19.0323 40.1088 19.7947 38.9669C20.5229 37.8762 21.2985 36.4147 21.5578 34.8495H23.764ZM31.9328 33.3596C30.8749 32.0339 29.496 30.5399 27.9533 29.4642C27.894 27.3667 27.6349 25.0332 27.1835 22.5061C28.6596 23.2844 29.7452 25.0196 30.5219 27.1293C31.2539 29.1178 31.6922 31.387 31.9328 33.3596ZM19.4793 34.8495C19.1387 36.3154 18.1884 37.7268 17.5003 38.6019C16.8122 37.7268 15.8619 36.3154 15.5213 34.8495H19.4793ZM4.47874 27.1293C5.25537 25.0196 6.341 23.2844 7.81707 22.5061C7.36569 25.0332 7.10663 27.3667 7.04732 29.4642C5.50489 30.5396 4.12525 32.0332 3.06795 33.3589C3.30848 31.3864 3.7468 29.1176 4.47874 27.1293Z" fill="#8B8985" stroke="#8B8985" stroke-width="0.5"/>
</svg>
