<svg width="41" height="35" viewBox="0 0 41 35" fill="none" xmlns="http://www.w3.org/2000/svg">
<path d="M15.1807 1.3207C15.006 0.97211 14.6505 0.75 14.2603 0.75H12.1652C10.2233 0.75 8.39668 1.5122 7.02393 2.89499C7.02392 2.895 7.02392 2.895 7.02391 2.89501L1.05069 8.91042L1.05022 8.91089C0.649846 9.31627 0.649846 9.96945 1.05022 10.3748L1.05067 10.3753L6.51067 15.8753L6.51112 15.8757C6.91455 16.28 7.5661 16.28 7.96954 15.8757L7.97004 15.8752L10.1103 13.7179V33.2143C10.1103 33.7843 10.57 34.25 11.1403 34.25H29.8603C30.4307 34.25 30.8903 33.7843 30.8903 33.2143V13.7179L33.0306 15.8752L33.0311 15.8757C33.4346 16.28 34.0861 16.28 34.4895 15.8757L34.49 15.8753L39.95 10.3753L39.9504 10.3748C40.3508 9.96944 40.3508 9.31627 39.9504 8.91089L39.95 8.91042L33.9767 2.89501L33.7996 3.07091L33.9767 2.89499C32.604 1.5122 30.7774 0.75 28.8354 0.75H26.7403C26.3526 0.75 25.9982 0.972579 25.8222 1.31466L25.8213 1.3166C25.7881 1.38239 24.4705 3.89286 20.5003 3.89286C16.5442 3.89286 15.2215 1.40017 15.1807 1.3207ZM15.1807 1.3207C15.1809 1.32115 15.1811 1.32159 15.1813 1.32204L14.9576 1.43371L15.1803 1.31996C15.1804 1.32018 15.1805 1.32042 15.1807 1.3207ZM7.24029 13.677L3.23552 9.64286L8.48167 4.35827C9.46607 3.36666 10.7735 2.82143 12.1652 2.82143H13.6968C14.4491 3.867 16.4656 5.96429 20.5003 5.96429C24.5351 5.96429 26.5516 3.867 27.3039 2.82143H28.8354C30.2271 2.82143 31.5346 3.36666 32.519 4.35827L37.7651 9.64286L33.7604 13.677L30.59 10.4819L30.59 10.4819C30.2949 10.1847 29.8514 10.0977 29.4666 10.2574C29.0804 10.4176 28.8303 10.797 28.8303 11.2143V32.1786H12.1703V11.2143C12.1703 10.7973 11.9206 10.418 11.5348 10.2577C11.1494 10.0952 10.7064 10.1861 10.4113 10.4813L10.4106 10.4819L7.24029 13.677Z" fill="#D9D9D9" stroke="#D9D9D9" stroke-width="0.5"/>
</svg>
