<svg width="33" height="42" viewBox="0 0 33 42" fill="none" xmlns="http://www.w3.org/2000/svg">
<path d="M26.2897 36.45C26.8734 36.45 27.3555 35.9843 27.3555 35.4C27.3555 34.8157 26.8734 34.35 26.2897 34.35C25.7059 34.35 25.2239 34.8157 25.2239 35.4C25.2239 35.9843 25.7059 36.45 26.2897 36.45ZM6.71073 36.45C7.29448 36.45 7.77651 35.9843 7.77651 35.4C7.77651 34.8157 7.29448 34.35 6.71073 34.35C6.12697 34.35 5.64494 34.8157 5.64494 35.4C5.64494 35.9843 6.12697 36.45 6.71073 36.45ZM26.2897 7.65C26.8734 7.65 27.3555 7.18426 27.3555 6.6C27.3555 6.01575 26.8734 5.55 26.2897 5.55C25.7059 5.55 25.2239 6.01575 25.2239 6.6C25.2239 7.18425 25.7059 7.65 26.2897 7.65ZM6.71073 5.55C6.12697 5.55 5.64494 6.01574 5.64494 6.6C5.64494 7.18426 6.12697 7.65 6.71073 7.65C7.29448 7.65 7.77651 7.18426 7.77651 6.6C7.77651 6.01575 7.29448 5.55 6.71073 5.55ZM16.5002 7.65C17.7161 7.65 18.6976 8.61945 18.6976 9.8C18.6976 10.9805 17.7161 11.95 16.5002 11.95C15.2843 11.95 14.3028 10.9805 14.3028 9.8C14.3028 8.61945 15.2843 7.65 16.5002 7.65ZM16.5002 14.05C18.8819 14.05 20.8291 12.1491 20.8291 9.8C20.8291 7.45088 18.8819 5.55 16.5002 5.55C14.1185 5.55 12.1713 7.45088 12.1713 9.8C12.1713 12.1491 14.1185 14.05 16.5002 14.05ZM16.5002 29.55C14.3853 29.55 12.6713 27.8637 12.6713 25.8C12.6713 23.7363 14.3853 22.05 16.5002 22.05C18.6151 22.05 20.3291 23.7363 20.3291 25.8C20.3291 27.8637 18.6151 29.55 16.5002 29.55ZM16.5002 19.95C13.2178 19.95 10.5397 22.5693 10.5397 25.8C10.5397 29.0307 13.2178 31.65 16.5002 31.65C19.7826 31.65 22.4607 29.0307 22.4607 25.8C22.4607 22.5693 19.7826 19.95 16.5002 19.95ZM16.5002 34.35C11.6851 34.35 7.77651 30.5086 7.77651 25.8C7.77651 21.0914 11.6851 17.25 16.5002 17.25C21.3153 17.25 25.2239 21.0914 25.2239 25.8C25.2239 30.5086 21.3153 34.35 16.5002 34.35ZM16.5002 15.15C10.5192 15.15 5.64494 19.9229 5.64494 25.8C5.64494 31.6771 10.5192 36.45 16.5002 36.45C22.4812 36.45 27.3555 31.6771 27.3555 25.8C27.3555 19.9229 22.4812 15.15 16.5002 15.15ZM30.1186 38.6C30.1186 38.8977 29.8694 39.15 29.5528 39.15H3.44757C3.13102 39.15 2.88178 38.8977 2.88178 38.6V3.4C2.88178 3.10233 3.13102 2.85 3.44757 2.85H29.5528C29.8694 2.85 30.1186 3.10233 30.1186 3.4V38.6ZM29.5528 0.75H3.44757C1.96481 0.75 0.750198 1.93414 0.750198 3.4V38.6C0.750198 40.0659 1.96481 41.25 3.44757 41.25H29.5528C31.0356 41.25 32.2502 40.0659 32.2502 38.6V3.4C32.2502 1.93414 31.0356 0.75 29.5528 0.75Z" fill="#D9D9D9" stroke="#D9D9D9" stroke-width="0.5"/>
</svg>
