<svg width="42" height="41" viewBox="0 0 42 41" fill="none" xmlns="http://www.w3.org/2000/svg">
<path d="M9.32756 24.8267L9.32596 24.8252C9.28434 24.7853 9.26223 24.7337 9.26223 24.675C9.26223 24.6187 9.28381 24.5659 9.32755 24.5233L10.8826 23.0071L13.8592 25.9092C13.8594 25.9094 13.8596 25.9096 13.8598 25.9098C14.0644 26.1111 14.3332 26.2104 14.5994 26.2104C14.8662 26.2104 15.1346 26.1107 15.3404 25.9101C15.7532 25.5076 15.7526 24.8532 15.3408 24.4497L15.3404 24.4492L12.3719 21.555L14.0826 19.8871L15.4592 21.2292C15.4594 21.2294 15.4596 21.2296 15.4598 21.2298C15.6644 21.4311 15.9332 21.5304 16.1994 21.5304C16.4662 21.5304 16.7346 21.4307 16.9404 21.2301C17.3532 20.8276 17.3526 20.1732 16.9408 19.7697L16.9404 19.7692L15.5719 18.435L17.2826 16.7671L20.2592 19.6692C20.2593 19.6694 20.2595 19.6695 20.2596 19.6696C20.4642 19.871 20.7331 19.9704 20.9994 19.9704C21.2662 19.9704 21.5346 19.8707 21.7404 19.6701C22.153 19.2678 22.153 18.6115 21.7404 18.2092L18.7719 15.315L20.4826 13.6471L21.8592 14.9892C21.8593 14.9893 21.8594 14.9894 21.8595 14.9895C22.0641 15.191 22.333 15.2904 22.5994 15.2904C22.8662 15.2904 23.1346 15.1907 23.3404 14.9901C23.753 14.5878 23.753 13.9315 23.3404 13.5292L21.9719 12.195L23.6826 10.5271L26.6592 13.4292C26.6593 13.4294 26.6595 13.4295 26.6596 13.4296C26.8642 13.631 27.1331 13.7304 27.3994 13.7304C27.6662 13.7304 27.9346 13.6307 28.1403 13.4301C28.553 13.0278 28.553 12.3715 28.1403 11.9692L25.1719 9.07501L26.8826 7.40709L34.4285 14.7643L16.8825 31.8717C16.7988 31.9533 16.6369 31.9533 16.5532 31.8717L15.3244 30.6736L10.5564 26.0248L9.32756 24.8267ZM11.0026 33.4441L11.0025 33.4441L10.9993 33.4473C10.9224 33.5251 10.7827 33.5339 10.6873 33.4377L10.6873 33.4377L10.6844 33.4348L7.71475 30.5395L7.71478 30.5394L7.71147 30.5363C7.66981 30.4971 7.64943 30.4482 7.64943 30.3987C7.64943 30.3531 7.66677 30.3022 7.7229 30.2484L7.72442 30.2469L9.81549 28.2066L13.0956 31.4048L11.0026 33.4441ZM32.9016 2.31224L32.9017 2.31239L34.8753 5.51942L31.3995 8.90833L27.622 5.2238L27.622 5.22377L26.5403 4.16921C26.1313 3.77034 25.4692 3.77034 25.0601 4.16921L25.0596 4.16965C24.6479 4.57319 24.6472 5.22756 25.0601 5.63013L25.3933 5.95501L7.8473 23.0624C7.4062 23.4924 7.16223 24.0652 7.16223 24.675C7.16223 25.2861 7.40604 25.8591 7.84756 26.2879C7.84759 26.2879 7.84763 26.288 7.84767 26.288L8.32618 26.7546L6.25506 28.7753C5.80235 29.2035 5.54943 29.7799 5.54943 30.3987C5.54943 31.0151 5.80178 31.5917 6.24557 32.0112L6.9819 32.7291L1.06031 38.489L1.0601 38.4892C0.647298 38.8917 0.647947 39.5457 1.05759 39.9492L1.0585 39.9501C1.26426 40.1507 1.53266 40.2505 1.79943 40.2505C2.06581 40.2505 2.33433 40.151 2.53875 39.9517L8.47122 34.1812L9.1913 34.8832C9.19185 34.8837 9.1924 34.8843 9.19294 34.8848C9.63239 35.3282 10.2208 35.5704 10.8474 35.5704H10.849C11.4752 35.5704 12.0636 35.3269 12.4937 34.8945C12.4942 34.8939 12.4947 34.8934 12.4953 34.8928L14.585 32.8569L15.0725 33.3323C15.0726 33.3323 15.0726 33.3323 15.0727 33.3324C15.5122 33.7626 16.0969 33.998 16.7178 33.998C17.3374 33.998 17.9219 33.7625 18.3628 33.3326L35.9178 16.2164L36.2592 16.5492C36.2595 16.5495 36.2597 16.5498 36.26 16.5501C36.4646 16.7511 36.7333 16.8504 36.9994 16.8504C37.2662 16.8504 37.5346 16.7507 37.7403 16.5501C38.153 16.1478 38.153 15.4915 37.7403 15.0892L36.6587 14.0346L36.6587 14.0346L32.8888 10.3604L36.3624 6.97365L39.66 8.90277C39.6604 8.90298 39.6607 8.90318 39.6611 8.90339C39.8298 9.00387 40.0165 9.05045 40.1994 9.05045C40.5106 9.05045 40.8196 8.91502 41.0252 8.6554C41.3557 8.24527 41.318 7.65741 40.9403 7.28921L34.5404 1.04921C34.1644 0.682689 33.5714 0.650779 33.157 0.966762C32.7374 1.2854 32.6256 1.86294 32.9016 2.31224Z" fill="#8B8985" stroke="#8B8985" stroke-width="0.5"/>
</svg>
