<svg width="40" height="39" viewBox="0 0 40 39" fill="none" xmlns="http://www.w3.org/2000/svg">
<path d="M20.9059 1.33812L20.9057 1.33761C20.7276 0.962867 20.3534 0.787109 20.0004 0.787109C19.6475 0.787109 19.2733 0.962867 19.0952 1.33761L19.095 1.33812L2.65238 36.1422H1.76044C1.18785 36.1422 0.750443 36.6284 0.750443 37.1966C0.750443 37.7648 1.18785 38.2509 1.76044 38.2509H3.28044H10.546H29.4548H36.7204H38.2404C38.8112 38.2509 39.2504 37.7651 39.2504 37.1966C39.2504 36.628 38.8112 36.1422 38.2404 36.1422H37.3485L20.9059 1.33812ZM35.0962 36.1422H30.095L20.9147 15.835C20.8996 15.8007 20.8801 15.7757 20.8648 15.7591C20.8645 15.7588 20.8642 15.7585 20.864 15.7582C20.6952 15.4538 20.3836 15.2292 20.0004 15.2292C19.6163 15.2292 19.3021 15.455 19.1335 15.7617C19.1323 15.763 19.131 15.7644 19.1298 15.7659C19.1158 15.7821 19.0994 15.8051 19.0862 15.8351L9.9059 36.1422H4.90473L20.0004 4.18904L35.0962 36.1422ZM21.0104 36.1422V20.9875L27.8606 36.1422H21.0104ZM18.9904 36.1422H12.1403L18.9904 20.9875V36.1422Z" fill="#D9D9D9" stroke="#D9D9D9" stroke-width="0.5"/>
</svg>
