<svg width="40" height="25" viewBox="0 0 40 25" fill="none" xmlns="http://www.w3.org/2000/svg">
<path d="M36.7202 13.0167H36.2102V11.9833H36.7202C36.9996 11.9833 37.2302 12.2128 37.2302 12.5C37.2302 12.7872 36.9996 13.0167 36.7202 13.0167ZM34.1902 20.1667C34.1902 20.4539 33.9596 20.6833 33.6802 20.6833C33.4008 20.6833 33.1702 20.4539 33.1702 20.1667V4.83333C33.1702 4.54614 33.4008 4.31667 33.6802 4.31667C33.9596 4.31667 34.1902 4.54614 34.1902 4.83333V20.1667ZM31.1502 21.7C31.1502 21.9872 30.9196 22.2167 30.6402 22.2167C30.3608 22.2167 30.1302 21.9872 30.1302 21.7V3.3C30.1302 3.01281 30.3608 2.78333 30.6402 2.78333C30.9196 2.78333 31.1502 3.01281 31.1502 3.3V4.83333V20.1667V21.7ZM28.1102 11.9833V13.0167H11.8902V11.9833H28.1102ZM9.87021 21.7C9.87021 21.9872 9.63961 22.2167 9.36021 22.2167C9.08082 22.2167 8.85021 21.9872 8.85021 21.7V20.1667V4.83333V3.3C8.85021 3.01281 9.08082 2.78333 9.36021 2.78333C9.63961 2.78333 9.87021 3.01281 9.87021 3.3V21.7ZM6.32021 20.6833C6.04082 20.6833 5.81021 20.4539 5.81021 20.1667V4.83333C5.81021 4.54614 6.04082 4.31667 6.32021 4.31667C6.59961 4.31667 6.83021 4.54614 6.83021 4.83333V20.1667C6.83021 20.4539 6.59961 20.6833 6.32021 20.6833ZM3.28021 13.0167C3.00082 13.0167 2.77021 12.7872 2.77021 12.5C2.77021 12.2128 3.00082 11.9833 3.28021 11.9833H3.79021V13.0167H3.28021ZM36.7202 9.95H36.2102V4.83333C36.2102 3.42926 35.0774 2.28333 33.6802 2.28333C33.4401 2.28333 33.2089 2.31951 32.9907 2.38292C32.6255 1.43306 31.7161 0.75 30.6402 0.75C29.243 0.75 28.1102 1.89593 28.1102 3.3V9.95H11.8902V3.3C11.8902 1.89593 10.7574 0.75 9.36021 0.75C8.28434 0.75 7.37488 1.43306 7.00976 2.38292C6.79148 2.31951 6.56032 2.28333 6.32021 2.28333C4.92305 2.28333 3.79021 3.42926 3.79021 4.83333V9.95H3.28021C1.88305 9.95 0.750214 11.0959 0.750214 12.5C0.750214 13.9041 1.88305 15.05 3.28021 15.05H3.79021V20.1667C3.79021 21.5707 4.92305 22.7167 6.32021 22.7167C6.56032 22.7167 6.79148 22.6805 7.00976 22.6171C7.37488 23.5669 8.28434 24.25 9.36021 24.25C10.7574 24.25 11.8902 23.1041 11.8902 21.7V15.05H28.1102V21.7C28.1102 23.1041 29.243 24.25 30.6402 24.25C31.7161 24.25 32.6255 23.5669 32.9907 22.6171C33.2089 22.6805 33.4401 22.7167 33.6802 22.7167C35.0774 22.7167 36.2102 21.5707 36.2102 20.1667V15.05H36.7202C38.1174 15.05 39.2502 13.9041 39.2502 12.5C39.2502 11.0959 38.1174 9.95 36.7202 9.95Z" fill="#8B8985" stroke="#8B8985" stroke-width="0.5"/>
</svg>
